<?xml version="1.0" standalone="no"?>
<!DOCTYPE svg PUBLIC "-//W3C//DTD SVG 20010904//EN"
 "http://www.w3.org/TR/2001/REC-SVG-20010904/DTD/svg10.dtd">
<svg version="1.0" xmlns="http://www.w3.org/2000/svg"
 width="260.000000pt" height="260.000000pt" viewBox="0 0 260.000000 260.000000"
 preserveAspectRatio="xMidYMid meet">
<metadata>
Created by potrace 1.14, written by Peter Selinger 2001-2017
</metadata>
<g transform="translate(0.000000,260.000000) scale(0.100000,-0.100000)"
fill="#000000" stroke="none">
<path d="M431 2578 c-5 -13 -6 -27 -3 -33 3 -5 -2 -4 -12 4 -9 8 -15 19 -12
26 2 6 -2 12 -10 12 -7 0 -11 -4 -8 -9 3 -4 1 -14 -3 -22 -7 -12 -11 -12 -33
0 -24 14 -24 15 -2 11 12 -3 22 -1 22 4 0 5 -4 9 -9 9 -5 0 -16 3 -24 6 -17 6
-18 -11 -3 -36 5 -8 6 -12 1 -8 -4 4 -14 0 -21 -10 -12 -15 -12 -14 -7 7 4 18
3 22 -6 17 -7 -5 -18 0 -27 10 -14 18 -14 18 -7 0 4 -13 2 -17 -8 -14 -8 3
-13 12 -13 20 1 9 -7 14 -22 14 -13 -1 -24 -4 -26 -6 -2 -3 -1 -4 1 -3 2 1 13
-7 24 -18 12 -11 30 -18 41 -17 10 2 21 -2 23 -9 3 -8 -6 -12 -25 -10 -17 1
-30 7 -29 12 1 6 -8 10 -20 9 -13 0 -21 1 -19 4 3 2 -1 10 -7 17 -13 14 -47 3
-47 -16 0 -6 7 -6 20 1 14 7 20 7 20 0 0 -5 -5 -10 -12 -10 -6 0 -4 -6 7 -13
11 -9 14 -16 7 -21 -6 -3 -17 0 -25 8 -18 18 -30 9 -18 -13 12 -21 -12 -56
-33 -48 -14 6 -30 -16 -19 -27 11 -11 34 -6 27 5 -4 7 2 7 17 -1 31 -16 39
-25 16 -17 -10 4 -27 2 -38 -4 -17 -9 -18 -13 -7 -27 11 -13 11 -14 -1 -7 -9
5 -12 4 -8 -2 4 -6 0 -16 -8 -23 -15 -12 -12 -30 5 -30 5 0 6 7 3 17 -5 12 -3
14 7 8 9 -6 11 -4 5 5 -6 10 -4 12 9 7 13 -5 15 -2 12 18 -3 16 -1 23 5 19 6
-3 8 -8 5 -11 -3 -3 -1 -15 5 -26 7 -12 7 -17 1 -13 -11 7 -42 -19 -42 -35 0
-14 11 -11 33 9 20 17 20 17 2 -10 -10 -16 -22 -25 -29 -21 -6 4 -5 -1 2 -10
12 -14 16 -15 29 -2 8 8 17 15 21 15 3 0 1 -5 -5 -11 -6 -6 -9 -17 -6 -24 3
-9 -2 -12 -14 -10 -10 2 -18 4 -18 5 0 1 -8 3 -19 5 -14 3 -16 1 -7 -8 7 -7
16 -13 21 -13 6 -1 16 -2 23 -3 9 -1 9 -3 -1 -10 -8 -4 -14 -12 -15 -17 -1 -5
-5 -8 -9 -6 -12 3 -9 -16 2 -23 6 -4 19 -1 28 6 15 12 15 12 -1 -7 -9 -11 -17
-27 -17 -35 0 -8 -3 -10 -8 -4 -11 16 -30 16 -36 0 -3 -8 -2 -14 2 -14 24 4
34 -3 29 -20 -4 -15 0 -19 15 -16 12 3 18 2 14 -2 -3 -3 -1 -12 6 -20 9 -11 7
-18 -6 -31 -15 -15 -16 -15 -11 -1 4 10 2 20 -4 23 -10 6 -27 -31 -18 -40 3
-3 14 -6 25 -7 11 0 19 -4 16 -8 -6 -10 -29 -5 -48 10 -9 8 -19 11 -23 7 -3
-3 -1 -6 5 -6 7 0 12 -5 12 -11 0 -5 -5 -7 -12 -3 -7 4 -8 3 -4 -4 4 -6 13 -9
21 -5 20 7 15 -25 -7 -59 -16 -24 -15 -38 3 -38 4 0 11 9 14 21 5 16 10 18 21
8 8 -6 14 -17 14 -23 0 -6 -4 -5 -9 3 -6 10 -10 10 -16 1 -4 -6 -5 -14 -2 -17
3 -3 1 -16 -4 -30 -8 -21 -6 -28 11 -40 25 -17 26 -48 3 -62 -10 -6 -12 -11
-5 -11 6 0 12 -4 12 -10 0 -5 -14 -7 -31 -5 -24 3 -28 1 -20 -9 6 -7 7 -17 3
-21 -4 -5 -1 -5 6 -1 7 4 10 12 7 17 -4 5 -2 9 3 9 6 0 12 -6 15 -14 7 -17
-16 -39 -28 -28 -5 4 -5 1 -1 -6 6 -11 12 -10 30 2 19 12 23 12 23 1 0 -8 -4
-12 -8 -10 -7 5 -23 -24 -21 -37 1 -5 -3 -8 -8 -8 -6 0 -10 -5 -10 -11 0 -5 4
-7 10 -4 5 3 10 2 10 -3 0 -6 -7 -12 -15 -16 -8 -3 -15 -13 -15 -22 0 -16 1
-16 18 -1 13 12 21 13 32 6 12 -9 12 -10 -3 -5 -15 5 -17 2 -11 -16 5 -16 3
-20 -10 -15 -8 3 -18 1 -22 -5 -4 -7 -3 -8 4 -4 8 5 12 -1 12 -15 0 -18 -2
-19 -15 -9 -21 17 -19 7 4 -18 20 -23 41 -29 41 -11 0 5 -4 8 -9 4 -5 -3 -12
-1 -16 4 -3 6 4 15 15 21 17 9 20 8 20 -10 0 -14 4 -19 12 -13 7 4 5 -5 -5
-20 -9 -15 -13 -27 -7 -27 5 0 10 -7 10 -15 0 -21 -20 -19 -21 3 -1 9 -1 21 0
26 1 5 -5 6 -14 2 -9 -3 -24 3 -35 14 -11 11 -20 16 -20 11 0 -6 10 -17 22
-25 12 -9 18 -16 13 -16 -5 0 -1 -6 10 -13 11 -9 15 -19 10 -27 -6 -10 -11
-10 -20 4 -12 15 -13 15 -17 -2 -4 -15 0 -18 18 -16 12 1 27 4 31 7 5 3 15 1
23 -5 13 -8 12 -9 -2 -5 -18 6 -33 -29 -17 -39 5 -3 6 -10 3 -16 -5 -7 -12 -4
-22 8 -14 18 -14 18 -9 -3 5 -23 -16 -39 -35 -26 -7 3 -8 1 -4 -6 4 -6 13 -11
19 -10 7 1 23 0 37 -1 19 -2 20 -4 7 -7 -15 -4 -16 -7 -6 -19 10 -12 9 -17 -1
-27 -9 -9 -11 -9 -6 0 3 6 2 15 -4 18 -6 4 -10 3 -9 -2 3 -20 -2 -25 -15 -13
-13 10 -13 8 -3 -14 7 -14 14 -21 15 -16 7 18 22 10 22 -11 0 -16 -5 -20 -20
-16 -13 3 -20 0 -20 -10 0 -8 4 -12 9 -8 5 3 12 1 16 -5 3 -5 15 -10 25 -10
10 0 22 -5 25 -10 4 -6 1 -9 -5 -8 -7 2 -14 -5 -15 -14 -2 -10 2 -18 8 -18 7
0 7 -4 -1 -12 -10 -10 -15 -10 -22 2 -7 11 -10 11 -10 2 0 -7 -6 -12 -12 -11
-31 4 -39 -1 -30 -18 5 -10 7 -24 4 -32 -3 -8 0 -11 7 -7 6 4 9 17 5 29 -4 18
-1 23 15 23 14 0 19 -7 18 -26 -2 -17 2 -24 13 -22 8 2 12 1 8 -3 -4 -4 0 -14
8 -22 17 -18 10 -33 -17 -33 -12 0 -17 -4 -13 -11 3 -6 15 -8 27 -5 15 3 17 2
9 -6 -9 -9 -18 -8 -37 0 -15 7 -24 8 -21 3 4 -5 -2 -12 -11 -14 -18 -5 -7 -7
47 -11 11 0 19 -5 18 -11 -4 -13 -26 -16 -34 -4 -3 5 -15 9 -27 9 -20 0 -20 0
-1 -16 10 -8 14 -13 9 -10 -6 2 -11 -4 -11 -15 0 -10 3 -19 7 -19 4 0 6 -8 4
-18 -2 -9 -4 -21 -4 -25 -1 -5 -6 -5 -11 -2 -18 11 -10 -7 12 -26 25 -23 35
-25 18 -4 -9 11 -9 22 -2 45 7 18 7 32 1 35 -15 10 0 25 24 24 20 -1 20 -2 -3
-8 -17 -5 -21 -9 -12 -15 7 -4 10 -11 7 -16 -3 -5 -1 -19 5 -30 8 -14 8 -20 0
-20 -6 0 -10 -7 -8 -15 2 -9 -8 -21 -21 -28 -31 -16 -32 -30 -2 -32 21 -2 22
0 8 10 -14 10 -11 12 18 11 31 -1 33 -3 18 -13 -9 -7 -13 -13 -9 -13 5 0 3 -6
-3 -14 -7 -8 -10 -26 -7 -41 3 -15 2 -25 -1 -21 -4 3 -14 -6 -23 -22 -18 -28
-11 -42 20 -42 13 0 13 1 0 10 -11 7 -12 12 -4 20 8 8 13 6 17 -10 4 -16 0
-23 -16 -29 -12 -5 -25 -7 -29 -5 -18 11 8 -39 27 -52 21 -14 44 -61 24 -48
-5 3 -9 11 -9 19 0 20 -26 25 -49 8 -25 -17 -24 -35 2 -39 13 -2 16 2 12 17
-5 14 -2 19 12 18 10 0 13 -3 5 -6 -6 -2 -9 -9 -6 -14 3 -6 -2 -21 -11 -35
-16 -25 -16 -25 4 -14 13 6 21 7 21 1 0 -5 -9 -12 -19 -16 -12 -4 -18 -12 -14
-21 3 -8 -1 -22 -8 -31 -8 -10 -9 -14 -2 -10 6 4 14 3 17 -2 4 -5 2 -12 -4
-16 -13 -8 -13 -25 1 -25 5 0 8 3 5 8 -2 4 2 15 9 25 11 16 13 16 19 2 3 -9 2
-13 -4 -10 -6 3 -10 2 -10 -4 0 -5 5 -13 10 -16 6 -4 8 -11 4 -16 -3 -5 -10
-6 -16 -3 -7 4 -8 2 -4 -5 6 -9 14 -8 33 4 24 16 24 16 14 -3 -8 -15 -8 -22 2
-25 7 -3 4 -6 -6 -6 -10 -1 -26 3 -36 8 -9 5 -21 7 -27 3 -13 -10 -16 -32 -4
-32 5 0 10 4 10 8 0 5 7 9 15 9 8 0 15 -4 15 -9 0 -5 4 -6 10 -3 5 3 7 0 4 -8
-3 -9 -17 -13 -35 -12 -24 2 -27 0 -18 -11 6 -7 8 -18 4 -24 -10 -17 7 -11 22
8 8 9 12 12 9 5 -4 -6 0 -14 6 -16 10 -4 10 -6 1 -6 -7 -1 -10 -8 -6 -18 4
-11 3 -14 -5 -9 -15 9 -15 1 -1 -26 8 -16 8 -23 -2 -30 -11 -8 -11 -9 1 -5 8
2 15 15 15 30 1 14 5 30 10 34 4 4 5 -1 1 -12 -5 -14 0 -24 16 -37 l23 -17
-24 6 c-18 4 -22 2 -19 -8 3 -8 11 -15 19 -15 8 -1 20 -2 27 -3 6 0 12 -8 12
-16 0 -13 4 -14 23 -4 12 7 23 11 25 10 8 -5 28 26 25 39 -2 8 3 3 12 -12 18
-33 46 -38 40 -8 -2 11 1 20 7 20 5 0 8 -7 4 -15 -3 -9 3 -19 14 -25 15 -8 20
-8 20 1 0 8 5 7 16 -2 15 -12 16 -11 10 8 -5 16 -3 21 8 19 19 -3 34 -16 18
-16 -7 0 -12 -4 -12 -8 0 -5 7 -9 15 -9 8 0 12 4 10 8 -6 9 24 34 32 25 3 -3
2 -6 -4 -6 -5 0 -10 -7 -10 -16 0 -15 2 -14 13 1 8 10 11 29 8 42 -4 14 -2 23
6 23 6 0 9 -4 6 -9 -3 -4 6 -6 19 -3 14 2 22 8 20 12 -3 5 -1 11 5 15 5 3 10
1 10 -4 0 -6 5 -11 12 -11 6 0 4 7 -5 18 -19 21 -13 34 11 24 14 -5 15 -4 2
10 -11 13 -17 14 -25 5 -5 -7 -16 -12 -22 -12 -7 0 -13 -3 -13 -7 0 -31 1 -32
10 -18 5 8 12 12 15 9 3 -4 -1 -11 -8 -17 -10 -9 -17 -7 -29 8 -16 18 -15 20
13 32 16 7 29 16 29 20 0 3 3 15 7 25 6 16 5 17 -12 3 -17 -14 -18 -13 -12 3
4 12 1 17 -11 17 -14 0 -14 2 -3 9 12 8 13 12 1 25 -7 9 -10 19 -6 23 3 3 6 1
6 -5 0 -6 7 -9 15 -6 8 4 12 11 9 16 -4 6 0 14 7 19 11 7 10 9 -3 9 -21 0 -24
16 -5 23 9 4 9 6 -1 6 -7 1 -10 5 -7 11 3 6 2 10 -4 10 -5 0 -8 8 -6 17 2 10
4 25 5 33 1 9 5 6 10 -8 5 -12 14 -22 20 -22 7 0 7 6 0 21 -7 11 -9 27 -6 34
2 7 -2 16 -10 19 -22 8 -26 7 -19 -3 3 -6 -5 -15 -17 -22 -21 -11 -22 -11 -9
4 7 9 11 26 8 38 -4 16 -3 18 9 8 11 -9 14 -8 14 5 0 9 -5 16 -11 16 -6 0 -9
5 -7 11 2 6 6 9 10 7 3 -2 15 6 27 16 36 32 23 68 -14 39 -16 -12 -16 -14 -3
-10 10 3 20 2 23 -2 2 -5 -4 -11 -15 -14 -27 -7 -38 30 -15 52 10 9 15 10 11
4 -8 -15 10 -18 19 -3 4 6 11 8 16 5 5 -3 6 1 3 10 -4 8 -1 22 6 29 9 12 7 17
-12 26 -21 10 -21 10 -5 -3 10 -9 14 -18 9 -21 -11 -7 -35 19 -38 41 -1 8 3
12 10 10 7 -3 18 5 26 16 12 20 12 21 -3 8 -11 -9 -17 -10 -17 -2 0 6 -7 11
-16 11 -13 0 -14 3 -4 15 7 8 17 12 22 8 6 -3 9 0 6 8 -3 8 2 19 10 25 12 9
12 12 -2 23 -11 9 -16 10 -16 2 0 -6 6 -11 13 -12 6 0 3 -4 -9 -9 -11 -4 -28
-23 -37 -42 -9 -18 -17 -26 -17 -16 0 9 5 20 11 24 8 4 7 9 -2 15 -11 7 -10 9
4 9 9 0 17 4 17 10 0 5 -8 7 -18 3 -14 -5 -14 -3 3 11 20 17 20 17 -5 12 -24
-5 -24 -4 -6 9 11 8 14 15 8 15 -7 0 -12 5 -12 11 0 7 11 4 27 -6 l28 -18 -19
22 c-17 18 -17 21 -3 15 12 -4 17 -1 17 11 0 12 -6 16 -20 12 -20 -5 -28 7
-10 18 5 3 19 -4 31 -16 15 -15 20 -17 16 -6 -3 8 -3 18 1 20 4 2 2 2 -5 1
-18 -5 -26 15 -13 31 6 7 20 14 31 14 10 1 29 1 41 1 13 1 38 10 56 20 l33 20
-4 -29 c-5 -27 -3 -29 16 -21 13 4 21 15 19 25 -2 12 2 15 15 11 10 -3 25 -1
33 5 12 9 11 10 -5 4 -20 -6 -20 -6 0 13 20 18 20 18 33 -7 7 -14 10 -18 7 -8
-3 13 2 17 26 17 19 0 28 -4 24 -11 -4 -6 -14 -8 -24 -4 -12 5 -13 4 -4 -6 10
-10 15 -9 28 1 8 7 15 8 15 3 0 -5 19 -10 41 -10 23 0 36 3 29 7 -9 5 -5 12
11 24 15 10 18 16 9 16 -10 0 -11 3 -4 8 6 4 13 13 15 21 4 10 8 9 19 -5 12
-14 12 -16 1 -9 -9 5 -12 4 -7 -3 4 -6 14 -8 23 -5 12 5 15 2 10 -10 -3 -9 -2
-17 3 -17 6 0 10 5 10 11 0 5 5 7 12 3 8 -5 9 -2 5 10 -4 10 -7 22 -7 27 0 6
-4 8 -8 5 -4 -2 -13 4 -20 14 -10 17 -9 18 6 13 9 -3 23 -13 30 -21 8 -10 12
-11 12 -4 0 19 42 32 60 19 8 -6 4 1 -9 16 -19 21 -27 24 -38 15 -11 -8 -12
-7 -7 6 4 10 12 15 19 13 6 -3 20 9 31 26 14 25 19 28 22 14 4 -21 22 -23 22
-2 0 8 5 15 11 15 5 0 7 -6 3 -12 -5 -9 -2 -9 9 1 21 17 22 35 2 27 -8 -3 -15
-1 -15 5 0 6 -4 7 -10 4 -6 -3 -7 1 -4 9 7 18 24 22 24 6 0 -5 5 -10 11 -10 5
0 7 5 4 10 -9 14 18 13 32 -1 9 -9 10 -6 6 11 -5 17 -3 21 7 15 9 -6 11 -4 5
6 -15 24 -13 47 4 42 9 -3 5 4 -7 14 -23 19 -23 20 -6 37 14 15 15 19 3 27 -8
5 -9 9 -4 9 20 0 38 -17 26 -24 -6 -4 -11 -14 -11 -22 0 -12 2 -12 14 -2 11
11 13 26 6 48 -1 3 -2 20 -2 37 0 18 -5 30 -9 27 -5 -3 -9 0 -9 5 0 10 14 15
33 12 10 -1 9 7 -3 29 -7 13 -7 21 0 25 6 4 8 15 5 26 -4 11 -3 18 2 17 5 -2
19 7 32 19 21 19 23 26 13 45 -11 22 -11 22 -7 -4 3 -24 -8 -37 -35 -42 -3 -1
-11 -5 -18 -10 -11 -7 -12 -4 -3 12 14 26 14 35 1 27 -6 -4 -7 1 -3 11 5 14 8
13 19 -7 16 -28 15 -30 18 46 2 64 11 89 28 79 7 -4 8 -2 4 5 -4 6 -12 9 -17
6 -5 -4 -9 -1 -9 5 0 6 -4 8 -10 5 -5 -3 -10 3 -10 15 0 13 -6 20 -14 18 -8
-2 -15 0 -15 5 -2 24 1 27 15 13 19 -20 40 -11 23 10 -9 11 -8 14 5 14 10 0
14 5 11 10 -4 6 -12 10 -18 9 -24 -3 -34 1 -34 16 0 8 4 12 9 9 4 -3 8 0 8 5
0 6 -6 11 -12 12 -7 0 -4 4 7 9 11 5 14 9 6 9 -10 1 -12 9 -8 31 4 16 2 32 -3
35 -15 9 12 33 30 27 8 -3 21 -13 28 -21 11 -14 11 -13 2 7 -6 12 -17 22 -25
22 -8 0 -15 5 -15 10 0 6 5 10 10 10 6 0 10 8 10 18 -1 16 -1 16 -11 0 -5 -9
-16 -15 -24 -12 -8 4 -12 10 -9 15 3 5 11 6 17 2 7 -4 5 2 -3 12 -14 17 -13
18 3 12 11 -4 16 -3 12 3 -4 6 -17 8 -29 6 -13 -2 -29 0 -37 5 -10 6 -6 9 14
9 15 0 27 5 27 11 0 5 5 7 10 4 6 -3 10 1 10 10 0 12 -6 15 -21 10 -15 -5 -19
-4 -15 4 4 6 2 11 -4 11 -7 0 -9 7 -6 15 4 10 -2 19 -15 24 -20 7 -20 8 -4 24
14 14 14 17 2 17 -9 0 -18 -5 -20 -10 -3 -6 -4 -5 -3 2 2 7 -1 21 -6 32 -7 12
-7 16 0 12 14 -8 22 18 11 35 -7 12 -9 12 -9 -1 -1 -12 -3 -11 -14 3 -11 14
-15 15 -19 5 -4 -8 -6 -7 -6 5 -1 9 5 17 12 17 7 0 8 3 2 8 -5 4 -10 13 -11
20 -2 29 -5 33 -14 27 -5 -3 -10 0 -10 7 0 9 -3 9 -10 -2 -5 -8 -10 -10 -10
-5 0 6 6 17 13 24 10 10 9 12 -3 9 -8 -2 -20 -12 -27 -23 -8 -12 -12 -15 -13
-6 0 11 -3 11 -16 0 -10 -8 -8 0 7 25 14 25 27 35 37 31 13 -5 13 -3 1 11 -8
10 -15 12 -17 5 -2 -6 -11 -11 -20 -11 -13 0 -14 2 -4 8 9 6 6 12 -13 22 -14
7 -28 10 -32 7 -3 -4 -13 -1 -22 6 -14 10 -14 10 -3 -4 7 -10 21 -15 32 -12
11 3 20 1 20 -5 0 -5 -13 -9 -30 -8 -16 0 -30 4 -30 8 0 5 -8 8 -17 8 -14 0
-15 2 -5 9 8 4 14 12 14 17 0 5 4 8 9 6 5 -1 9 2 9 8 0 15 -11 12 -33 -7 -11
-10 -17 -12 -13 -5 4 6 2 12 -3 12 -6 0 -11 -5 -11 -12 0 -6 -3 -8 -7 -5 -3 4
-15 -1 -25 -10 -18 -16 -18 -16 -12 1 6 16 4 17 -15 6 -21 -11 -22 -10 -11 9
12 23 1 28 -19 9 -10 -11 -11 -10 -6 5 4 9 12 17 18 17 6 0 8 3 4 6 -3 3 -15
-1 -27 -9 -22 -15 -60 -12 -60 5 0 5 4 7 9 3 5 -3 12 -1 16 4 3 6 12 8 19 5 7
-3 16 2 20 12 5 14 4 15 -9 4 -8 -7 -15 -10 -15 -6 0 3 -10 2 -23 -3 -24 -9
-62 4 -53 18 3 4 -4 8 -15 8 -10 1 -19 -2 -19 -8 0 -5 3 -8 8 -8 21 4 23 -3 7
-21 -10 -11 -14 -20 -10 -20 5 0 0 -7 -11 -16 -19 -15 -19 -16 1 -9 15 5 17 3
8 -6 -12 -12 -37 -3 -28 11 6 10 -12 23 -37 27 -12 2 -15 -2 -11 -14 4 -11 3
-14 -5 -9 -21 12 -14 39 8 33 11 -3 25 2 32 10 11 14 10 15 -10 9 -12 -3 -31
-9 -42 -12 -15 -4 -18 -1 -14 9 3 8 1 18 -4 21 -5 3 -8 -6 -6 -20 2 -18 -1
-24 -11 -20 -8 3 -17 0 -21 -6 -5 -7 -2 -8 6 -3 9 5 11 4 6 -3 -4 -7 -14 -12
-22 -12 -11 0 -12 5 -5 18 6 12 4 21 -7 31 -14 13 -15 12 -10 -7 8 -30 -8 -38
-24 -12 -7 11 -19 20 -26 20 -7 0 -10 5 -6 12 4 6 3 8 -3 5 -6 -4 -13 -16 -16
-27 -3 -11 -1 -18 4 -14 5 3 9 0 9 -5 0 -6 10 -12 23 -12 20 -1 20 -2 2 -6
-11 -3 -24 -8 -30 -13 -17 -12 -46 -20 -40 -11 3 5 -1 12 -7 15 -7 3 -1 3 15
1 29 -4 37 9 11 19 -9 4 -12 11 -7 18 9 15 13 38 7 38 -3 0 -8 -10 -13 -22z
m59 -18 c0 -5 -2 -10 -4 -10 -3 0 -8 5 -11 10 -3 6 -1 10 4 10 6 0 11 -4 11
-10z m270 -5 c12 7 19 -20 9 -36 -7 -11 -9 -11 -9 3 0 9 -4 19 -9 23 -6 3 -8
-3 -6 -15 2 -11 0 -22 -5 -25 -5 -3 -7 4 -5 15 2 11 -1 20 -6 20 -5 0 -4 6 3
14 7 8 15 10 16 5 2 -5 7 -7 12 -4z m-150 -15 c0 -5 -5 -10 -11 -10 -5 0 -7 5
-4 10 3 6 8 10 11 10 2 0 4 -4 4 -10z m-250 -20 c0 -5 -2 -10 -4 -10 -3 0 -8
5 -11 10 -3 6 -1 10 4 10 6 0 11 -4 11 -10z m35 0 c3 -6 -1 -7 -9 -4 -18 7
-21 14 -7 14 6 0 13 -4 16 -10z m169 -9 c-2 -3 -19 -6 -36 -7 -18 -2 -27 1
-20 5 13 8 64 10 56 2z m410 -43 c-3 -4 -9 -8 -15 -8 -5 0 -9 4 -9 8 0 5 7 9
15 9 8 0 12 -4 9 -9z m76 -20 c0 -15 -18 -17 -30 -3 -9 11 -8 14 9 12 12 -1
21 -5 21 -9z m-465 -218 c-3 -5 -2 -10 4 -10 6 0 8 -6 5 -14 -3 -8 4 -21 18
-29 29 -19 102 -32 93 -16 -4 6 -13 8 -19 6 -9 -4 -11 2 -8 18 2 13 11 26 21
30 13 5 14 4 4 -6 -19 -19 -16 -34 3 -18 9 7 21 14 28 15 13 2 15 -48 2 -57
-5 -4 6 -6 23 -5 25 1 31 5 27 18 -2 10 0 18 6 18 5 0 6 5 3 10 -3 6 -2 10 4
10 6 0 8 -12 5 -30 -5 -20 -3 -30 6 -30 7 0 10 6 7 13 -4 10 2 13 19 9 13 -2
21 -8 18 -13 -3 -5 -10 -6 -16 -3 -6 4 -8 1 -6 -7 3 -8 11 -13 17 -12 6 2 11
-1 11 -6 0 -5 8 -7 18 -4 14 3 17 -1 17 -21 -1 -14 -5 -29 -10 -33 -4 -5 -5
-3 -2 4 5 7 0 10 -15 6 -21 -4 -22 -3 -5 10 21 17 22 24 3 24 -8 0 -17 -9 -19
-19 -6 -21 23 -41 47 -32 9 3 16 1 16 -5 0 -13 -59 -11 -66 1 -3 4 -10 8 -15
8 -6 0 -4 -7 5 -15 8 -8 22 -15 30 -15 13 0 14 -3 4 -19 -9 -15 -9 -23 2 -36
12 -14 12 -18 0 -25 -9 -6 -17 -4 -22 3 -5 8 -8 6 -8 -7 0 -13 5 -17 19 -13
12 3 22 -1 25 -10 3 -8 11 -11 17 -7 8 5 8 9 -1 14 -9 6 -9 12 0 30 11 20 10
22 -4 17 -8 -3 -18 -2 -21 3 -4 6 -1 10 4 10 6 0 11 6 11 14 0 8 4 17 9 20 5
4 7 -3 4 -14 -3 -11 -1 -20 5 -20 13 0 23 -38 12 -45 -5 -3 -7 -14 -5 -25 5
-28 -13 -35 -36 -14 -15 13 -22 15 -31 6 -6 -6 -8 -15 -4 -19 4 -4 11 -1 17 7
7 12 10 11 15 -7 4 -14 12 -20 22 -17 14 5 14 4 -1 -6 -9 -6 -23 -8 -30 -4 -6
4 -2 -3 11 -15 28 -28 28 -40 -1 -37 -29 3 -35 -30 -6 -37 21 -6 27 9 7 16 -8
2 -7 3 2 3 17 -1 23 -43 7 -53 -6 -3 -7 -1 -4 4 4 6 0 14 -9 17 -8 3 -12 2 -9
-4 3 -6 2 -10 -3 -10 -5 0 -9 -7 -9 -15 0 -10 6 -13 19 -9 11 3 20 0 24 -10 3
-9 11 -13 17 -9 6 3 7 1 3 -6 -4 -6 -12 -9 -17 -6 -5 4 -9 1 -9 -4 0 -6 5 -11
11 -11 5 0 7 -5 4 -11 -5 -7 -12 -6 -23 4 -18 15 -46 12 -37 -3 3 -5 12 -7 20
-3 9 3 15 -1 15 -10 0 -11 -6 -13 -22 -9 l-21 5 21 -21 c12 -12 26 -22 31 -22
5 0 11 -6 14 -14 7 -17 -14 -15 -39 4 -11 8 -16 10 -12 6 4 -5 0 -15 -10 -22
-15 -12 -15 -13 6 -9 20 4 22 2 12 -10 -7 -8 -9 -15 -4 -15 5 0 2 -6 -7 -13
-19 -15 -21 -44 -2 -44 7 0 13 4 13 9 0 4 -5 8 -10 8 -6 0 -3 11 7 24 10 14
22 21 27 16 5 -5 14 -7 20 -6 6 2 8 1 3 -1 -4 -3 -5 -8 -3 -12 3 -4 -1 -8 -9
-8 -8 0 -12 4 -9 9 3 4 0 8 -5 8 -6 0 -11 -9 -11 -21 0 -12 4 -17 11 -13 8 5
8 1 0 -14 -8 -15 -7 -23 4 -32 8 -7 15 -18 15 -24 0 -6 -5 -3 -11 7 -6 9 -15
15 -20 12 -5 -4 -7 -10 -5 -14 3 -4 -6 -7 -19 -7 -15 0 -21 4 -18 14 5 11 7
11 14 0 7 -10 9 -9 9 3 0 19 -26 33 -28 16 -2 -22 -8 -42 -16 -55 -4 -8 -3
-11 5 -10 6 2 14 -3 17 -11 3 -8 0 -11 -7 -7 -7 4 -11 0 -11 -12 0 -22 -9 -34
-22 -26 -5 3 -4 12 3 20 6 8 9 17 5 21 -3 3 -6 1 -6 -6 0 -7 -4 -10 -9 -6 -19
11 -22 -17 -4 -37 10 -12 13 -19 8 -15 -6 3 -17 2 -25 -3 -9 -5 -19 -5 -27 2
-18 15 -16 28 5 28 14 0 15 2 2 10 -13 8 -13 10 1 10 20 0 44 26 31 34 -5 3
-16 -4 -26 -15 -11 -14 -24 -18 -39 -14 -18 5 -19 4 -7 -5 12 -10 11 -11 -7
-7 -24 5 -33 -16 -13 -28 6 -3 10 -1 10 4 0 6 4 11 9 11 6 0 8 -10 6 -21 -5
-25 -15 -38 -15 -21 0 7 -7 12 -15 12 -8 0 -14 3 -14 8 3 19 -2 33 -10 28 -15
-10 -6 -39 15 -47 10 -4 13 -8 6 -8 -7 -1 -29 10 -49 24 -20 13 -40 22 -44 20
-4 -3 -6 2 -5 11 0 10 -8 18 -23 20 -17 3 -22 0 -18 -10 4 -9 -2 -17 -15 -21
-15 -5 -17 -10 -9 -18 9 -9 14 -8 21 3 7 12 9 10 7 -7 -1 -21 -8 -21 -34 0
-10 7 -8 15 7 34 11 14 20 32 20 41 0 11 3 12 13 3 10 -8 14 -7 14 4 0 8 -5
11 -10 8 -7 -4 -8 1 -3 12 5 15 4 16 -9 5 -13 -11 -15 -9 -16 11 -1 13 -1 30
0 38 2 7 -2 10 -8 7 -5 -4 -13 -1 -17 5 -4 8 -3 9 4 5 18 -11 15 36 -4 62 -9
13 -20 19 -27 15 -7 -4 -6 0 2 10 7 9 10 17 7 17 -4 0 -1 7 8 15 8 9 12 23 9
31 -5 14 -3 15 18 4 22 -12 22 -14 4 -20 -10 -4 -14 -9 -9 -13 6 -3 16 -2 23
3 11 6 11 14 -3 40 -9 18 -16 39 -16 46 0 8 -6 11 -17 7 -11 -4 -14 -3 -9 5 4
7 16 12 27 12 11 0 17 5 14 10 -4 6 -12 7 -18 4 -8 -5 -8 -3 1 7 14 15 16 33
3 25 -5 -4 -12 0 -14 6 -3 7 -6 2 -7 -12 l-1 -25 -11 25 c-17 38 -18 53 -5 42
22 -16 44 -20 58 -10 11 8 10 9 -3 4 -10 -3 -18 -1 -18 5 0 6 -4 8 -9 4 -5 -3
-12 -1 -15 3 -3 5 8 8 24 8 31 -1 47 15 18 20 -9 1 -24 7 -35 13 -16 11 -16
11 4 6 28 -8 38 9 17 29 -12 12 -12 16 -2 17 7 0 4 4 -7 9 -18 7 -19 8 -2 15
9 4 24 2 32 -5 9 -7 15 -8 15 -2 0 5 -8 13 -17 17 -16 6 -15 8 7 26 18 14 20
17 6 12 -14 -5 -17 -3 -11 6 6 10 3 11 -14 2 -11 -7 -21 -14 -21 -17 0 -3 6
-2 13 2 9 5 9 4 0 -6 -7 -8 -20 -15 -28 -16 -12 -2 -13 2 -5 17 8 14 7 19 -2
20 -7 1 -2 5 12 9 l25 8 -25 1 c-19 1 -26 7 -26 21 0 11 4 20 8 20 4 0 8 -6 8
-14 0 -10 9 -13 31 -11 35 5 52 15 26 15 -10 0 -17 5 -17 10 0 6 6 10 13 10 8
0 7 4 -3 10 -8 5 -10 10 -4 10 7 0 14 9 17 20 4 17 3 18 -17 5 -20 -13 -22
-13 -24 10 -1 14 3 25 9 25 7 0 6 6 -2 17 -11 13 -11 17 -1 20 6 3 12 11 12
18 0 8 5 17 12 21 7 5 9 2 6 -8 -5 -13 -3 -14 17 -4 14 6 19 13 14 15 -7 2 -6
7 2 12 18 11 22 11 14 -1z m35 0 c0 -5 -5 -10 -11 -10 -5 0 -7 5 -4 10 3 6 8
10 11 10 2 0 4 -4 4 -10z m40 -14 c0 -3 -4 -8 -10 -11 -5 -3 -10 -1 -10 4 0 6
5 11 10 11 6 0 10 -2 10 -4z m111 -19 c-10 -9 -11 -8 -5 6 3 10 9 15 12 12 3
-3 0 -11 -7 -18z m-151 3 c0 -5 11 -12 25 -16 14 -4 24 -9 21 -12 -8 -7 -66
19 -66 29 0 5 5 9 10 9 6 0 10 -4 10 -10z m595 -28 c-3 -3 -11 0 -18 7 -9 10
-8 11 6 5 10 -3 15 -9 12 -12z m15 -22 c0 -5 -2 -10 -4 -10 -3 0 -8 5 -11 10
-3 6 -1 10 4 10 6 0 11 -4 11 -10z m-1073 -16 c-3 -3 -12 -4 -19 -1 -8 3 -5 6
6 6 11 1 17 -2 13 -5z m333 -34 c0 -5 -4 -10 -10 -10 -5 0 -10 5 -10 10 0 6 5
10 10 10 6 0 10 -4 10 -10z m15 -30 c3 -5 -1 -10 -10 -10 -9 0 -13 5 -10 10 3
6 8 10 10 10 2 0 7 -4 10 -10z m10 -30 c3 -6 -1 -7 -9 -4 -18 7 -21 14 -7 14
6 0 13 -4 16 -10z m745 -15 c0 -9 -6 -12 -16 -8 -13 5 -13 7 -2 14 17 11 18
11 18 -6z m-1125 -55 c3 -5 1 -10 -4 -10 -6 0 -11 5 -11 10 0 6 2 10 4 10 3 0
8 -4 11 -10z m12 -117 c-1 -14 -8 -28 -15 -31 -9 -3 -12 4 -8 25 6 36 4 33 15
33 6 0 9 -12 8 -27z m1114 -82 c-10 -6 -6 -11 15 -19 16 -6 23 -11 16 -11 -8
-1 -11 -8 -8 -19 5 -13 -2 -21 -27 -29 -31 -11 -31 -11 -9 4 12 8 22 19 22 24
0 11 -22 7 -33 -6 -5 -6 -6 -1 -2 10 4 11 8 27 10 35 2 8 4 16 4 18 1 1 7 2
14 2 9 0 8 -3 -2 -9z m-337 -29 c3 -5 -1 -9 -9 -9 -8 0 -12 4 -9 9 3 4 7 8 9
8 2 0 6 -4 9 -8z m-448 -67 c-1 -8 -5 -17 -8 -21 -5 -4 -4 16 1 34 3 9 9 -1 7
-13z m806 -17 c-9 -9 -12 -9 -12 0 0 7 -5 12 -11 12 -5 0 -7 -5 -3 -12 5 -7 3
-8 -6 -3 -10 6 -9 11 5 22 23 16 46 0 27 -19z m-1147 -29 c-4 -5 -1 -9 6 -9
10 0 10 -3 2 -11 -16 -16 -32 -3 -26 21 3 11 9 17 14 14 5 -3 7 -10 4 -15z
m791 6 c-3 -23 -12 -26 -13 -5 -1 11 2 20 7 20 4 0 7 -7 6 -15z m-1 -125 c-3
-5 -12 -10 -18 -10 -7 0 -6 4 3 10 19 12 23 12 15 0z m330 -21 c-4 -5 -12 -9
-18 -8 -9 0 -8 2 1 6 6 2 9 10 6 15 -4 7 -2 8 5 4 6 -4 9 -12 6 -17z m-764
-16 c13 -16 12 -17 -3 -4 -10 7 -18 15 -18 17 0 8 8 3 21 -13z m426 1 c-3 -3
-12 -4 -19 -1 -8 3 -5 6 6 6 11 1 17 -2 13 -5z m-421 -27 c8 3 14 0 14 -7 0
-6 -4 -8 -10 -5 -5 3 -11 -2 -11 -12 -1 -17 -2 -17 -6 0 -2 9 -9 17 -14 17 -6
0 -7 5 -3 12 6 9 9 9 11 1 3 -7 11 -9 19 -6z m751 -28 c1 -12 1 -20 0 -18 -2
2 -9 12 -16 22 -11 14 -11 17 1 17 7 0 14 -10 15 -21z m-397 -11 c0 -4 -4 -8
-9 -8 -6 0 -12 4 -15 8 -3 5 1 9 9 9 8 0 15 -4 15 -9z m40 8 c0 -3 -4 -8 -10
-11 -5 -3 -10 -1 -10 4 0 6 5 11 10 11 6 0 10 -2 10 -4z m-370 -16 c0 -5 -2
-10 -4 -10 -3 0 -8 5 -11 10 -3 6 -1 10 4 10 6 0 11 -4 11 -10z m347 -16 c-3
-3 -12 -4 -19 -1 -8 3 -5 6 6 6 11 1 17 -2 13 -5z m-304 -34 c-3 -12 -8 -19
-11 -16 -5 6 5 36 12 36 2 0 2 -9 -1 -20z m304 14 c-3 -3 -12 -4 -19 -1 -8 3
-5 6 6 6 11 1 17 -2 13 -5z m340 -58 c-3 -8 -1 -17 6 -20 8 -3 8 -5 1 -5 -6
-1 -18 7 -25 16 -10 11 -10 14 -1 9 6 -4 12 -2 12 3 0 6 3 11 6 11 3 0 4 -6 1
-14z m-17 -37 c0 -5 5 -7 10 -4 6 3 10 1 10 -4 0 -13 -3 -13 -24 -5 -18 7 -22
24 -6 24 6 0 10 -5 10 -11z m-1045 -89 c3 -5 1 -10 -4 -10 -6 0 -11 5 -11 10
0 6 2 10 4 10 3 0 8 -4 11 -10z m903 -95 c-3 -3 -9 2 -12 12 -6 14 -5 15 5 6
7 -7 10 -15 7 -18z m-143 -25 c3 -5 1 -10 -4 -10 -6 0 -11 5 -11 10 0 6 2 10
4 10 3 0 8 -4 11 -10z m31 -15 c-9 -9 -16 -13 -16 -8 0 12 22 34 28 28 2 -2
-3 -11 -12 -20z m-796 -1 c0 -8 -5 -12 -10 -9 -6 4 -8 11 -5 16 9 14 15 11 15
-7z m593 -25 c-4 -15 -8 -17 -14 -8 -6 11 4 28 18 29 0 0 -1 -9 -4 -21z m140
3 c-1 -5 7 -8 20 -4 12 3 19 1 14 -3 -15 -17 -43 -14 -54 4 -10 16 -9 19 5 16
9 -1 16 -7 15 -13z m-378 -1 c3 -5 2 -12 -3 -15 -5 -3 -9 1 -9 9 0 17 3 19 12
6z m81 -3 c5 4 0 -4 -11 -17 l-20 -25 34 24 c19 13 31 19 27 12 -4 -7 -5 -12
-2 -12 2 0 12 -3 22 -7 12 -4 15 -3 10 5 -4 7 -2 12 3 12 18 0 12 -19 -10 -31
-15 -7 -24 -8 -31 -1 -7 7 -15 6 -26 -4 -18 -18 -29 -9 -36 28 -4 24 -2 27 13
18 10 -5 22 -6 27 -2z m-92 -46 c3 -5 -1 -9 -9 -9 -8 0 -12 4 -9 9 3 4 7 8 9
8 2 0 6 -4 9 -8z m20 -26 c-7 -18 -20 -21 -29 -6 -3 6 1 10 9 10 9 0 16 5 16
12 0 6 2 9 5 6 3 -3 3 -13 -1 -22z m203 18 c-3 -3 -12 -4 -19 -1 -8 3 -5 6 6
6 11 1 17 -2 13 -5z m-552 -123 c3 -5 2 -12 -3 -15 -5 -3 -9 1 -9 9 0 17 3 19
12 6z m350 -180 c3 -6 -3 -9 -14 -8 -11 0 -17 5 -15 9 7 11 22 10 29 -1z
m-368 -131 c-13 -18 -16 -19 -27 -5 -11 13 -10 14 5 9 12 -5 16 -4 12 3 -4 6
-1 13 5 16 20 7 21 0 5 -23z m-6 -152 c0 -10 2 -10 6 0 2 6 9 12 15 12 6 0 3
-9 -7 -20 -10 -11 -25 -20 -34 -19 -12 0 -11 2 4 8 19 8 19 8 0 19 -18 10 -18
11 -2 12 9 0 17 -6 18 -12z m364 -76 c-3 -3 -11 0 -18 7 -9 10 -8 11 6 5 10
-3 15 -9 12 -12z m-344 -115 c-10 -9 -11 -8 -5 6 3 10 9 15 12 12 3 -3 0 -11
-7 -18z m348 -4 c2 -2 -3 -3 -11 -3 -9 0 -19 7 -22 16 -6 15 -4 15 11 3 10 -7
20 -15 22 -16z m-275 -115 c-3 -4 1 -8 8 -8 8 0 5 -5 -5 -11 -14 -8 -22 -8
-30 1 -9 10 -9 14 1 17 10 4 10 8 0 21 -12 14 -11 14 9 2 12 -8 19 -18 17 -22z"/>
<path d="M520 2169 c0 -5 5 -9 11 -9 6 0 9 -7 5 -15 -6 -17 2 -19 24 -5 10 6
11 10 3 10 -7 0 -12 5 -10 11 1 6 -6 13 -15 14 -10 2 -18 -1 -18 -6z"/>
<path d="M585 2150 c3 -5 14 -10 23 -10 15 0 15 2 2 10 -20 13 -33 13 -25 0z"/>
<path d="M804 2115 c24 -18 39 -20 34 -2 -3 6 -15 13 -29 15 -23 2 -23 2 -5
-13z"/>
<path d="M530 1899 c0 -5 5 -7 10 -4 6 3 10 8 10 11 0 2 -4 4 -10 4 -5 0 -10
-5 -10 -11z"/>
<path d="M853 1710 c-34 -14 -28 -21 7 -9 17 6 30 13 30 15 0 6 -12 4 -37 -6z"/>
<path d="M510 1582 c0 -15 5 -18 25 -14 22 4 27 17 7 17 -4 0 -13 4 -19 8 -9
6 -13 2 -13 -11z"/>
<path d="M527 1553 c-9 -18 -6 -63 4 -63 6 0 9 -9 6 -20 -3 -11 -1 -20 4 -20
12 0 11 27 -1 51 -8 14 -7 19 2 19 9 0 9 3 -2 10 -13 8 -12 10 3 10 10 0 15 5
12 10 -7 12 -22 13 -28 3z"/>
<path d="M580 1390 c0 -6 7 -13 15 -16 8 -3 17 -14 20 -25 8 -25 21 -24 21 1
0 11 -6 20 -12 20 -7 0 -20 7 -28 16 -9 8 -16 10 -16 4z"/>
<path d="M750 1339 c0 -5 -5 -7 -12 -3 -7 4 -8 3 -4 -4 4 -6 13 -9 21 -6 8 4
12 10 9 15 -7 12 -14 11 -14 -2z"/>
<path d="M1250 1739 c0 -5 5 -7 10 -4 6 3 10 8 10 11 0 2 -4 4 -10 4 -5 0 -10
-5 -10 -11z"/>
<path d="M640 2590 c-9 -6 -10 -10 -3 -10 6 0 15 5 18 10 8 12 4 12 -15 0z"/>
<path d="M1520 2593 c0 -5 7 -16 14 -26 13 -16 14 -16 20 -1 4 10 1 21 -6 26
-16 10 -28 10 -28 1z"/>
<path d="M1630 2590 c0 -5 5 -10 11 -10 5 0 7 5 4 10 -3 6 -8 10 -11 10 -2 0
-4 -4 -4 -10z"/>
<path d="M1876 2591 c-4 -7 -5 -15 -2 -18 9 -9 19 4 14 18 -4 11 -6 11 -12 0z"/>
<path d="M2100 2590 c-8 -5 -10 -10 -5 -10 6 0 17 5 25 10 8 5 11 10 5 10 -5
0 -17 -5 -25 -10z"/>
<path d="M2220 2591 c0 -6 4 -13 10 -16 6 -3 7 1 4 9 -7 18 -14 21 -14 7z"/>
<path d="M2303 2577 c29 -27 33 -42 17 -52 -6 -4 -7 1 -3 11 5 13 3 15 -7 9
-8 -5 -11 -4 -7 2 4 6 0 13 -7 16 -10 4 -13 0 -11 -14 2 -11 1 -27 -2 -35 -5
-13 -9 -12 -27 4 -12 11 -31 18 -43 16 -12 -2 -25 1 -29 8 -5 7 -2 9 8 5 11
-4 16 1 16 19 0 14 -6 24 -14 24 -8 0 -14 -7 -14 -15 0 -8 -5 -15 -11 -15 -6
0 -8 -7 -5 -16 5 -14 4 -15 -9 -4 -12 10 -18 10 -30 0 -12 -10 -18 -10 -32 1
-15 12 -16 12 -10 -3 3 -10 1 -20 -6 -24 -7 -4 -9 -4 -5 1 4 4 3 16 -2 26 -7
12 -7 20 0 24 6 4 8 11 4 16 -10 16 -35 -12 -29 -32 3 -9 0 -21 -7 -25 -6 -4
-14 -2 -16 4 -2 7 -19 12 -38 12 -25 0 -33 -4 -28 -12 4 -7 4 -10 -1 -6 -4 4
-14 3 -22 -4 -11 -8 -12 -7 -7 6 5 13 -1 16 -30 16 -20 0 -35 3 -34 8 2 4 -1
8 -7 9 -5 1 -9 -6 -9 -17 1 -11 -2 -17 -7 -15 -4 3 -11 -1 -16 -8 -5 -10 -15
-12 -28 -6 -11 4 -15 8 -9 8 7 1 15 8 18 17 5 13 2 15 -14 11 -12 -3 -24 1
-30 11 -7 13 -8 7 -6 -20 1 -21 -1 -38 -6 -38 -7 0 -12 15 -9 33 0 4 -6 7 -15
7 -9 0 -12 -5 -8 -12 4 -7 3 -10 -1 -5 -5 4 -18 -1 -29 -10 -20 -17 -20 -17
-7 0 7 9 10 17 5 17 -4 0 1 7 12 16 13 11 14 14 3 11 -9 -3 -16 1 -16 8 0 9 9
11 26 8 14 -2 23 -2 20 2 -24 23 -73 4 -67 -26 4 -18 -51 -44 -65 -30 -6 6 -7
14 -3 18 4 4 11 1 16 -7 6 -10 10 -11 10 -3 0 7 7 10 15 7 8 -4 15 -1 15 6 0
6 -4 9 -9 5 -5 -3 -12 4 -16 15 -4 12 -15 20 -28 19 l-22 0 23 -9 c32 -14 27
-23 -9 -16 -28 5 -31 4 -26 -14 3 -11 1 -20 -4 -20 -5 0 -9 5 -9 11 0 5 -4 8
-9 5 -14 -9 -42 5 -34 18 3 6 3 8 -2 4 -4 -4 -14 -3 -22 3 -19 17 -16 5 7 -21
11 -13 20 -28 20 -34 0 -6 -5 -4 -10 4 -8 13 -10 12 -10 -2 0 -10 -5 -18 -11
-18 -6 0 -8 9 -4 23 5 19 4 20 -5 5 -6 -10 -16 -18 -21 -18 -6 0 -7 5 -3 12 4
7 3 8 -5 4 -14 -9 -5 -26 15 -26 8 0 14 -5 14 -11 0 -5 6 -7 13 -3 8 5 8 2 -2
-9 -7 -9 -19 -17 -26 -17 -6 0 -19 -8 -28 -18 -15 -16 -15 -19 -2 -19 8 0 15
4 15 9 0 5 5 6 12 2 7 -4 8 -3 4 4 -4 7 -3 12 3 12 15 0 23 -18 11 -25 -5 -3
-10 -13 -10 -22 0 -9 -8 -25 -17 -36 -10 -11 -13 -18 -8 -14 6 3 17 2 25 -4
12 -7 11 -9 -5 -9 -18 -1 -17 -2 4 -11 13 -5 26 -7 29 -4 3 3 -1 5 -9 6 -8 0
-6 4 6 9 17 7 17 9 3 9 -10 1 -18 8 -18 17 0 8 5 12 10 9 6 -3 10 -1 10 5 0 6
4 9 9 6 13 -8 3 -65 -14 -82 -13 -14 -15 -14 -15 0 0 18 -16 21 -25 6 -4 -6
-11 -8 -16 -5 -5 4 -9 1 -9 -5 0 -15 26 -41 34 -33 3 4 6 -1 6 -11 0 -9 -4
-14 -10 -11 -5 3 -10 1 -10 -5 0 -6 11 -8 24 -6 19 3 24 0 23 -15 -1 -10 -5
-19 -10 -19 -4 0 -6 -4 -3 -9 4 -5 -2 -8 -11 -7 -9 2 -19 9 -21 16 -3 7 0 10
7 6 6 -4 11 -2 11 3 0 18 -19 12 -30 -9 -6 -11 -8 -21 -5 -21 3 -1 9 -2 14 -3
6 0 16 -7 23 -15 10 -10 10 -12 1 -7 -7 4 -13 2 -13 -3 0 -18 28 -12 33 7 2 9
4 3 3 -15 -1 -20 -5 -28 -11 -22 -5 5 -16 9 -25 9 -12 -1 -11 -4 4 -15 11 -8
14 -15 8 -15 -7 0 -12 -4 -12 -10 0 -12 22 -9 32 5 4 5 6 0 6 -12 -2 -14 -7
-19 -18 -15 -8 3 -12 2 -8 -3 4 -4 2 -15 -5 -24 -11 -14 -10 -14 6 -2 10 8 17
9 17 3 0 -6 -5 -14 -11 -18 -8 -5 -6 -10 5 -16 22 -13 20 -28 -4 -28 -18 0
-19 -3 -10 -20 9 -16 8 -20 -6 -20 -11 0 -14 -5 -10 -16 3 -9 6 -18 6 -20 0
-3 5 -2 10 1 6 3 10 2 10 -4 0 -5 -14 -8 -31 -6 -25 3 -28 1 -18 -11 6 -8 8
-14 4 -14 -4 0 -2 -6 4 -13 6 -8 7 -18 3 -22 -4 -5 1 -5 11 -2 9 4 17 2 17 -3
0 -6 -4 -10 -9 -10 -11 0 -8 -26 4 -37 4 -4 5 -2 0 6 -6 10 -4 12 4 6 9 -5 10
-10 2 -18 -7 -7 -15 -6 -27 4 -16 12 -17 12 -9 -1 5 -8 8 -25 6 -37 -2 -18 1
-22 15 -16 11 4 13 8 6 11 -21 7 -13 20 11 20 13 0 24 -7 24 -14 0 -8 -3 -14
-7 -14 -11 0 -5 -37 9 -54 7 -8 10 -19 7 -25 -3 -5 -3 -11 1 -14 5 -2 2 -2 -6
0 -8 2 -11 -2 -8 -10 3 -8 -1 -14 -9 -14 -8 0 -13 10 -12 24 2 14 7 22 15 19
22 -9 14 9 -8 19 -19 9 -25 34 -7 28 5 -2 8 2 8 7 0 13 -11 12 -32 -3 -15 -12
-15 -14 3 -25 22 -14 21 -32 -4 -50 -13 -10 -15 -17 -7 -33 6 -11 8 -25 4 -32
-4 -6 -4 -9 1 -5 4 4 14 0 22 -8 9 -8 21 -13 28 -10 7 2 12 -2 11 -9 -3 -20
-16 -32 -16 -15 0 13 -15 5 -15 -8 0 -4 -4 -13 -9 -21 -6 -9 -5 -12 2 -8 5 4
17 4 26 1 14 -5 14 -9 4 -22 -10 -12 -10 -14 0 -8 14 8 16 -3 3 -23 -6 -9 -6
-23 0 -35 10 -20 9 -20 -5 -3 -8 11 -12 25 -10 32 3 7 -1 15 -9 18 -12 4 -13
-2 -5 -35 6 -28 5 -44 -3 -54 -7 -8 -14 -12 -17 -9 -3 2 1 11 7 19 9 11 9 16
0 22 -7 4 -9 3 -6 -3 8 -12 -17 -36 -26 -26 -4 3 -7 2 -7 -4 0 -6 9 -13 21
-16 14 -4 18 -10 13 -19 -12 -19 -14 -38 -3 -38 5 0 9 7 9 15 0 8 11 17 25 21
24 6 24 7 8 20 -16 12 -16 13 -2 14 23 0 32 -28 12 -38 -10 -6 -14 -16 -10
-26 4 -10 3 -15 -3 -11 -15 9 -51 -5 -44 -16 4 -6 11 -6 20 2 10 8 14 8 14 0
0 -6 -4 -11 -10 -11 -13 0 -5 -61 9 -69 12 -8 5 -38 -14 -57 -8 -8 -15 -7 -25
4 -13 14 -12 15 3 9 20 -8 32 9 18 27 -6 7 -7 17 -3 21 4 5 2 5 -5 1 -7 -4
-10 -13 -7 -20 3 -7 -2 -16 -12 -20 -13 -5 -14 -9 -5 -20 9 -11 9 -15 -1 -19
-11 -4 -10 -6 0 -6 8 -1 10 -6 6 -13 -5 -10 -4 -10 6 -1 7 6 19 9 28 6 10 -4
13 -2 8 5 -4 7 -2 12 4 12 7 0 10 -7 6 -15 -3 -9 0 -15 8 -15 13 0 18 -24 10
-48 -3 -11 -7 -10 -20 2 -20 20 -34 20 -34 0 0 -10 6 -14 15 -10 8 3 15 1 15
-5 0 -7 -11 -9 -27 -5 -24 5 -26 4 -13 -6 9 -7 14 -22 13 -33 -3 -17 -2 -17 7
3 12 29 18 28 18 -3 0 -14 -6 -25 -12 -25 -6 0 -4 -4 4 -9 20 -13 32 -3 21 17
-10 20 2 62 12 45 4 -7 3 -14 -3 -18 -7 -4 -7 -12 0 -25 7 -13 7 -21 0 -25 -7
-4 -7 -14 1 -28 10 -22 10 -22 -8 -2 -11 11 -28 25 -39 31 -17 10 -20 9 -20
-8 0 -13 6 -18 18 -15 18 5 31 -18 26 -44 -2 -7 3 -14 10 -15 6 -1 15 -2 18
-3 3 0 -6 -14 -19 -31 -19 -22 -25 -39 -22 -65 2 -19 0 -35 -4 -35 -4 0 -13
-11 -19 -25 -8 -16 -8 -25 -1 -25 6 0 6 -7 -1 -20 -7 -14 -7 -20 0 -20 5 0 10
8 11 18 0 10 3 12 6 5 2 -7 9 -13 14 -13 6 0 3 10 -5 22 -18 25 -21 42 -6 33
6 -3 13 1 16 9 8 20 21 21 21 1 0 -8 -6 -15 -13 -15 -10 0 -11 -6 -5 -22 5
-15 4 -30 -5 -43 -9 -15 -10 -24 -3 -35 9 -13 10 -13 6 1 -8 25 8 43 28 32 16
-9 16 -10 0 -17 -14 -5 -15 -9 -5 -21 7 -9 10 -18 6 -22 -3 -3 -6 -1 -6 5 0 6
-7 9 -16 5 -8 -3 -13 -11 -10 -18 3 -8 -2 -16 -10 -19 -9 -3 -12 -1 -9 4 3 6
1 10 -4 10 -21 0 -10 -19 29 -50 33 -26 38 -35 29 -46 -7 -8 -14 -12 -18 -9
-3 3 1 10 8 14 9 6 10 11 2 15 -6 4 -11 2 -11 -4 0 -6 -5 -8 -11 -4 -8 4 -7 9
2 16 11 7 11 9 -1 7 -30 -3 -41 1 -34 13 5 10 4 10 -5 2 -14 -13 -24 -57 -10
-49 5 4 7 11 4 16 -4 5 1 9 10 9 9 0 13 -4 10 -10 -3 -5 1 -10 9 -10 18 0 21
-16 6 -25 -15 -9 -2 -25 15 -18 8 3 15 0 15 -5 0 -6 -9 -9 -20 -7 -13 2 -20
-2 -20 -11 0 -8 -4 -13 -9 -10 -11 7 -8 -20 3 -31 4 -4 6 -2 4 5 -1 8 8 18 21
23 24 9 24 9 8 -9 -9 -10 -17 -26 -17 -35 0 -11 -7 -14 -24 -11 -21 3 -23 1
-21 -27 2 -28 15 -55 15 -32 0 5 13 10 28 10 24 0 28 -4 27 -33 0 -18 -3 -30
-7 -28 -4 2 -9 0 -13 -6 -4 -6 -10 -8 -14 -6 -4 3 -8 -5 -8 -17 -1 -13 1 -17
5 -10 6 9 11 7 19 -6 10 -16 8 -18 -18 -15 -16 2 -29 -1 -29 -7 0 -6 9 -9 20
-6 13 3 20 0 20 -10 0 -8 -4 -11 -10 -8 -5 3 -10 1 -10 -4 0 -14 13 -14 28 1
9 9 12 9 12 -1 0 -8 7 -11 18 -7 14 5 14 4 -2 -9 -19 -15 -19 -15 5 -16 13 -1
28 -1 32 0 5 1 6 -3 2 -9 -3 -5 -1 -10 4 -10 6 0 11 -7 11 -15 0 -9 6 -12 16
-8 10 4 12 8 4 13 -15 9 -2 40 18 40 13 0 13 -2 -2 -13 -17 -13 -18 -14 -2
-20 9 -4 14 -3 11 2 -3 6 8 9 24 9 17 -1 29 -4 28 -7 -4 -14 30 -46 50 -47 19
0 20 2 7 20 -12 19 -10 23 16 38 19 10 30 13 30 6 0 -6 10 -3 22 8 16 13 19
14 10 2 -8 -10 -9 -18 -3 -22 5 -4 8 -15 6 -26 -3 -17 -1 -18 15 -8 14 9 16
16 9 25 -13 15 -2 36 16 29 14 -5 13 22 0 44 -3 6 -1 10 5 10 6 0 8 6 4 13 -5
9 -4 9 6 0 7 -6 13 -21 14 -32 0 -12 5 -21 10 -20 5 0 13 -5 17 -13 7 -10 9
-9 9 5 0 9 -4 17 -9 17 -5 0 -11 11 -13 25 -3 13 -1 22 3 19 5 -3 9 0 9 5 0
11 -13 15 -37 12 -7 -1 -13 6 -13 16 0 15 2 16 10 3 9 -13 10 -13 10 0 0 13 1
13 10 0 7 -12 9 -10 8 7 -2 14 -8 20 -19 18 -12 -2 -16 4 -15 23 1 19 6 26 18
24 17 -3 19 13 4 37 -7 11 -10 11 -17 0 -6 -10 -9 -10 -9 -2 0 17 23 29 28 15
2 -7 10 -12 17 -12 7 0 16 -6 19 -12 3 -7 3 -2 0 12 -7 28 -23 42 -38 33 -5
-3 -6 -1 -2 5 4 6 -3 21 -14 32 -15 15 -17 20 -6 18 8 -2 14 2 13 7 -1 6 -5 9
-9 8 -4 -2 -5 4 -2 12 4 8 10 12 15 9 19 -11 8 19 -13 38 -13 11 -17 17 -10
13 6 -3 12 -1 12 6 0 7 6 5 13 -6 10 -13 16 -15 21 -6 6 9 12 7 23 -6 13 -17
13 -16 3 5 -8 16 -8 22 1 22 7 0 9 3 6 6 -4 4 -13 2 -21 -5 -12 -10 -14 -6
-13 24 1 24 5 34 13 31 8 -3 11 1 8 9 -5 12 -10 12 -29 -3 -20 -15 -21 -18 -6
-29 14 -11 14 -12 -5 -13 -12 0 -24 6 -26 13 -7 16 2 38 12 32 4 -3 13 1 19 9
9 11 8 17 -4 29 -11 12 -12 17 -2 20 6 2 9 7 6 11 -4 4 -14 0 -23 -9 -9 -9
-16 -12 -16 -6 0 5 10 17 22 25 18 13 19 16 5 16 -9 0 -17 5 -17 11 0 6 9 9
19 6 11 -3 22 1 25 9 4 10 -2 12 -22 10 -15 -2 -20 -1 -12 1 8 3 21 13 28 22
10 11 11 12 6 1 -7 -12 -5 -13 8 -3 8 7 19 9 24 5 5 -4 5 -3 1 3 -8 10 -12 11
-38 14 -8 1 -8 5 -1 14 7 8 7 18 2 27 -6 9 -4 20 3 29 10 12 9 13 -2 6 -11 -6
-13 -4 -8 8 6 16 -18 32 -34 21 -5 -3 -9 5 -9 18 0 15 9 27 25 35 14 6 23 7
19 2 -3 -5 0 -9 5 -9 6 0 11 5 11 11 0 5 4 8 9 5 5 -3 12 1 15 9 4 13 2 14
-14 5 -11 -6 -21 -7 -21 -3 -6 29 -2 50 11 60 13 10 12 11 -5 7 -17 -4 -20 0
-20 30 0 19 4 38 9 43 5 4 6 3 2 -4 -8 -15 10 -53 25 -53 6 0 3 7 -5 16 -10
10 -14 24 -10 39 5 19 2 23 -12 21 -23 -3 -35 -37 -20 -55 9 -12 7 -12 -14 -1
-15 8 -20 15 -12 18 6 2 12 13 12 25 0 18 -2 19 -11 7 -9 -13 -10 -13 -6 0 2
8 9 16 15 16 7 1 16 2 22 3 5 0 8 7 6 13 -1 7 -1 10 1 6 3 -5 11 -8 19 -8 8 0
13 -5 11 -12 -1 -6 7 -14 18 -16 17 -4 18 -2 6 12 -11 14 -11 16 2 16 11 0 14
-7 11 -23 -2 -16 1 -24 11 -24 9 0 14 7 13 16 -1 9 2 17 7 18 6 0 9 -3 7 -9
-1 -5 2 -7 8 -3 5 3 10 0 10 -7 0 -9 3 -9 10 2 8 13 11 11 16 -7 4 -13 10 -20
15 -17 5 3 6 10 3 16 -4 6 -1 9 7 6 15 -5 38 19 39 39 0 8 -7 10 -17 6 -10 -3
-15 -3 -11 1 9 10 59 15 53 5 -3 -4 0 -9 7 -11 22 -8 0 -37 -24 -31 -19 4 -18
2 6 -11 33 -18 40 -20 31 -7 -3 5 -1 12 5 16 5 3 10 1 10 -5 0 -7 7 -10 15 -6
8 3 15 0 15 -6 0 -6 2 -9 5 -6 11 11 -8 38 -26 38 -13 0 -16 5 -12 16 5 13 7
13 14 2 5 -7 9 -8 9 -3 0 6 7 1 15 -9 14 -19 15 -19 15 7 0 15 5 27 10 27 12
0 12 2 0 -39 -7 -24 -6 -31 1 -24 6 6 12 19 13 29 2 11 7 19 12 19 5 0 14 4
21 8 6 4 14 3 18 -3 3 -5 -1 -10 -9 -10 -22 0 -20 -13 4 -28 11 -7 20 -8 20
-2 0 5 7 6 17 3 12 -5 14 -3 8 7 -5 9 -4 11 4 6 6 -4 10 -15 9 -24 -2 -10 5
-17 17 -19 19 -3 19 -2 1 5 -17 8 -17 9 -2 24 10 10 12 19 6 23 -5 3 -10 1
-10 -6 0 -7 -3 -9 -6 -6 -4 4 -1 13 6 22 10 12 10 15 0 15 -8 0 -11 3 -7 6 6
7 43 -12 40 -20 -2 -3 -3 -12 -3 -18 0 -9 4 -8 10 2 8 12 10 12 10 1 0 -8 2
-12 5 -9 7 7 -20 59 -36 68 -14 9 -21 60 -9 60 5 0 15 -9 23 -20 l14 -21 6 21
c3 12 1 18 -5 14 -6 -4 -8 2 -3 16 6 20 5 21 -17 10 -18 -10 -17 -7 7 15 17
14 25 24 18 21 -15 -8 -27 10 -13 19 6 4 17 1 26 -5 12 -10 12 -16 2 -29 -12
-14 -11 -14 5 -2 14 11 15 17 5 28 -14 18 -20 43 -8 40 4 -1 8 1 9 6 1 4 -2 7
-6 8 -30 2 -77 89 -49 89 6 0 4 5 -4 10 -20 13 -33 13 -25 0 11 -18 14 -51 4
-45 -5 4 -9 14 -9 23 0 10 -3 13 -8 7 -4 -5 -14 -11 -22 -13 -11 -3 -9 2 5 18
l19 21 -28 -10 c-35 -14 -39 -14 -33 2 3 8 1 20 -3 28 -15 24 -19 5 -6 -32 12
-33 11 -35 -8 -33 -32 4 -32 4 -16 14 12 8 12 10 -3 16 -9 3 -15 10 -12 14 3
5 -4 12 -16 15 -12 4 -18 12 -15 20 3 9 0 12 -9 8 -8 -3 -13 -9 -10 -14 7 -10
-32 -33 -58 -35 -10 -1 -21 5 -24 12 -6 16 -73 19 -73 3 0 -6 -9 -8 -20 -4
-12 4 -19 2 -18 -3 2 -6 1 -10 -2 -9 -3 0 -15 -5 -27 -12 -13 -6 -23 -8 -24
-4 0 4 -2 16 -4 26 -2 9 1 15 6 11 5 -3 7 -10 4 -15 -4 -5 5 -8 19 -7 30 3 19
17 -26 36 -24 10 -29 8 -48 -15 -18 -23 -25 -23 -21 0 0 4 -5 7 -12 8 -6 1 -1
4 13 8 15 4 24 14 24 24 -1 13 4 15 24 10 17 -4 23 -2 18 6 -4 6 -14 11 -22
11 -12 0 -12 4 -4 20 9 16 8 20 -7 21 -16 0 -16 1 2 9 16 7 17 9 3 9 -9 1 -18
7 -21 14 -3 9 -9 9 -25 0 -18 -11 -20 -10 -16 2 4 8 17 15 30 15 17 0 25 7 30
25 3 14 11 22 17 18 6 -3 7 -1 3 5 -11 17 -15 15 -26 -13 -9 -24 -30 -35 -30
-15 0 6 5 10 11 10 7 0 9 10 5 26 -6 22 -4 25 10 20 12 -5 15 -2 10 10 -3 8
-6 17 -6 19 0 2 -8 2 -17 0 -10 -1 -12 0 -5 2 6 3 12 9 12 15 0 7 5 6 14 -1
11 -9 14 -8 12 6 0 11 5 17 13 15 12 -3 12 0 1 12 -7 9 -8 16 -3 16 5 0 10 7
10 15 0 10 -6 13 -19 9 -10 -3 -18 -1 -18 5 0 5 9 13 20 16 19 6 29 26 13 24
-5 -1 -16 -1 -27 0 -15 1 -16 4 -7 15 7 8 8 17 3 20 -5 3 -12 16 -15 28 -6 22
-5 22 8 4 8 -11 15 -14 15 -7 0 7 5 9 12 5 7 -4 8 -3 4 5 -4 6 -12 9 -17 6
-13 -9 -5 30 10 49 7 9 18 13 24 9 6 -3 7 -1 3 6 -6 9 -11 9 -22 0 -8 -6 -17
-9 -21 -5 -4 3 2 12 13 20 17 13 17 14 -9 9 -31 -6 -37 11 -9 26 13 7 23 6 32
-2 12 -10 12 -9 2 5 -10 13 -10 17 0 21 9 4 10 6 1 6 -7 1 -10 8 -7 16 4 8 1
15 -4 15 -6 0 -9 -9 -7 -20 4 -22 -12 -37 -26 -23 -12 12 12 61 27 56 7 -2 14
4 18 13 4 12 2 15 -9 10 -9 -3 -15 0 -15 9 0 8 -9 15 -21 15 -11 0 -18 4 -15
9 4 5 0 11 -6 14 -7 2 -10 7 -7 11 4 4 13 0 22 -8 13 -14 16 -14 27 -1 7 8 19
15 27 15 9 0 11 5 6 13 -4 6 6 4 21 -7 24 -15 30 -16 38 -5 7 10 8 8 4 -6 -5
-16 -1 -21 18 -23 19 -1 23 2 19 18 -3 11 -9 20 -14 20 -5 0 -9 4 -9 8 0 7 25
8 49 3 2 -1 -2 -8 -9 -16 -10 -12 -10 -15 4 -15 9 0 16 6 16 13 0 8 3 7 9 -3
6 -8 8 -17 5 -21 -9 -15 14 -18 26 -4 15 18 34 20 24 3 -5 -8 -2 -9 9 -5 11 4
17 1 17 -9 0 -8 5 -12 11 -9 6 4 8 13 5 21 -3 8 0 13 6 11 5 -1 12 6 13 16 4
21 -11 23 -19 2 -3 -8 -12 -15 -21 -15 -19 0 -19 7 1 28 17 16 57 25 48 10 -3
-4 16 -6 41 -3 28 3 44 1 40 -5 -3 -6 -1 -10 4 -10 6 0 11 5 11 11 0 5 4 7 10
4 6 -3 -1 -18 -15 -33 -14 -15 -25 -31 -24 -37 0 -5 3 -4 6 3 2 6 9 10 14 6 5
-3 9 2 9 11 0 13 4 14 21 4 15 -8 19 -8 15 0 -5 7 2 11 16 10 13 0 17 -3 11
-6 -18 -7 -16 -16 6 -30 16 -10 18 -9 14 6 -3 11 0 22 6 25 6 4 11 0 11 -8 0
-8 5 -18 11 -22 13 -8 1 38 -12 46 -4 3 8 10 27 16 32 10 34 10 34 -12 0 -24
21 -27 43 -5 6 7 8 12 2 11 -21 -4 -36 0 -30 10 3 5 13 6 23 3 15 -6 16 -5 2
12 -14 18 -14 18 10 3 27 -17 54 -12 57 12 2 10 -6 16 -24 17 -26 1 -27 0 -8
-13 10 -8 14 -14 8 -14 -17 0 -36 27 -23 35 5 3 15 3 20 0 6 -3 10 3 10 15 0
13 -4 19 -12 14 -7 -5 -8 -3 -3 5 5 9 10 10 18 2 6 -6 16 -11 22 -11 5 0 4 4
-2 8 -7 5 -14 20 -15 35 -3 30 -13 35 -22 11 -3 -8 -2 -12 4 -9 6 3 10 2 10
-3 0 -15 -26 -22 -39 -9 -14 14 -15 37 -1 37 5 0 7 -8 4 -17 -5 -15 -4 -16 5
-3 14 19 14 50 0 50 -5 0 -7 -5 -3 -12 4 -7 3 -8 -4 -4 -14 9 -3 38 12 30 6
-3 4 1 -5 8 -15 13 -15 15 3 37 14 19 16 26 6 32 -7 5 -16 3 -20 -4 -6 -9 -8
-9 -8 0 0 6 -3 18 -6 27 -4 12 0 16 16 16 13 0 19 -4 14 -12 -4 -7 -3 -8 5 -4
18 11 3 26 -26 26 -14 0 -32 8 -40 18 -13 16 -14 15 -10 -6 3 -12 1 -20 -4
-16 -15 9 -10 36 9 50 15 12 15 12 -7 7 -22 -6 -54 -59 -45 -75 3 -4 -2 -5
-11 -2 -9 4 -14 12 -12 18 2 6 -3 16 -12 23 -11 8 -12 12 -3 13 6 0 12 4 12 9
0 5 -8 8 -17 6 -10 -1 -27 2 -38 8 -14 7 -11 2 8 -16z m-423 -57 c0 -5 -2 -10
-4 -10 -3 0 -8 5 -11 10 -3 6 -1 10 4 10 6 0 11 -4 11 -10z m280 -12 c0 -6 -7
-7 -16 -4 -9 3 -18 6 -20 6 -3 0 -3 4 1 10 7 11 35 2 35 -12z m298 -19 c-3 -8
-7 -3 -11 10 -4 17 -3 21 5 13 5 -5 8 -16 6 -23z m-954 -37 c3 -5 -1 -9 -9 -9
-8 0 -12 4 -9 9 3 4 7 8 9 8 2 0 6 -4 9 -8z m-44 -172 c0 -5 -5 -10 -11 -10
-5 0 -7 5 -4 10 3 6 8 10 11 10 2 0 4 -4 4 -10z m35 -30 c3 -5 2 -10 -4 -10
-5 0 -13 5 -16 10 -3 6 -2 10 4 10 5 0 13 -4 16 -10z m455 -30 c0 -5 -2 -10
-4 -10 -3 0 -8 5 -11 10 -3 6 -1 10 4 10 6 0 11 -4 11 -10z m150 -10 c0 -5 -5
-9 -12 -7 -7 1 -12 -3 -13 -10 0 -6 -3 -14 -6 -17 -5 -5 -5 32 0 42 4 7 31 0
31 -8z m-245 -69 c3 -5 0 -13 -6 -17 -7 -4 -9 -3 -5 4 3 5 0 13 -6 15 -9 4
-10 6 -1 6 6 1 14 -3 18 -8z m-25 -122 c0 -5 -4 -9 -8 -9 -5 0 -9 7 -9 15 0 8
4 12 9 9 4 -3 8 -9 8 -15z m-320 7 c0 -3 -4 -8 -10 -11 -5 -3 -10 -1 -10 4 0
6 5 11 10 11 6 0 10 -2 10 -4z m340 -51 c10 -12 10 -15 -2 -15 -8 0 -15 7 -15
15 0 8 1 15 2 15 2 0 8 -7 15 -15z m-5 -95 c3 -5 1 -10 -4 -10 -6 0 -11 5 -11
10 0 6 2 10 4 10 3 0 8 -4 11 -10z m-387 -19 c12 -10 22 -27 21 -37 0 -16 -2
-16 -9 4 -5 12 -16 22 -23 22 -8 0 -14 7 -14 15 0 19 0 19 25 -4z m52 7 c0 -4
-7 -8 -15 -8 -8 0 -15 4 -15 8 0 5 7 9 15 9 8 0 15 -4 15 -9z m324 -29 c-4 -8
1 -9 17 -5 20 6 21 5 6 -4 -18 -11 -37 -6 -37 11 0 5 5 9 11 9 5 0 7 -5 3 -11z
m-332 -36 c-10 -4 -10 -8 0 -21 12 -14 11 -14 -9 -1 -16 9 -19 16 -10 21 7 4
17 7 22 7 6 0 4 -3 -3 -6z m373 -32 c-1 -8 -7 -17 -14 -19 -9 -3 -11 2 -6 17
4 13 2 21 -5 21 -6 0 -8 -5 -4 -12 4 -7 3 -8 -4 -4 -6 4 -9 13 -6 21 8 19 43
-2 39 -24z m-38 -33 c-3 -8 -6 -5 -6 6 -1 11 2 17 5 13 3 -3 4 -12 1 -19z
m-374 -155 c8 -18 12 -33 8 -33 -11 0 -41 56 -34 64 8 7 6 9 26 -31z m377 -79
c0 -6 -7 -14 -15 -18 -12 -4 -14 2 -12 29 2 31 4 33 15 18 6 -9 12 -22 12 -29z
m334 -60 c9 -8 14 -20 10 -25 -6 -10 -34 14 -34 30 0 15 6 14 24 -5z m-154 -3
c0 -5 9 -11 21 -14 13 -4 18 -10 14 -17 -6 -9 -9 -9 -15 -1 -4 7 -16 13 -27
14 -13 0 -19 6 -16 14 6 15 23 18 23 4z m-136 -17 c3 -8 2 -12 -4 -9 -6 3 -10
10 -10 16 0 14 7 11 14 -7z m238 -16 c-6 -6 -15 -8 -19 -4 -4 4 -1 11 7 16 19
12 27 3 12 -12z m227 -100 c-9 -16 -14 -19 -17 -9 -2 7 2 17 9 22 20 13 21 11
8 -13z m-12 -43 c0 -8 -4 -12 -9 -9 -5 3 -6 10 -3 15 9 13 12 11 12 -6z m-827
-55 c0 -4 -8 -10 -18 -12 -17 -5 -20 7 -13 41 2 6 31 -21 31 -29z m-3 -60 c1
-11 -2 -20 -7 -20 -6 0 -7 17 -1 38 3 8 7 -1 8 -18z m459 -42 c-9 -5 -22 -7
-29 -4 -7 2 -4 5 6 5 10 1 15 5 12 11 -4 6 1 7 11 3 15 -6 15 -7 0 -15z m-463
-3 c4 -8 1 -17 -6 -21 -7 -4 -9 -4 -5 1 4 4 3 14 -3 22 -7 8 -8 13 -1 13 5 0
12 -7 15 -15z m402 5 c-3 -5 -12 -10 -18 -10 -7 0 -6 4 3 10 19 12 23 12 15 0z
m124 -14 c8 -10 8 -16 -2 -25 -18 -14 -30 -2 -16 16 6 7 8 13 4 13 -4 0 -14
-8 -21 -17 -12 -16 -13 -16 -14 -2 0 30 29 40 49 15z m-195 -104 c3 -5 -1 -9
-9 -9 -8 0 -12 4 -9 9 3 4 7 8 9 8 2 0 6 -4 9 -8z m-7 -89 c-3 -10 -5 -4 -5
12 0 17 2 24 5 18 2 -7 2 -21 0 -30z m30 -125 c2 -17 0 -19 -7 -8 -5 8 -6 18
-4 22 8 12 10 10 11 -14z m-354 -10 c-6 -11 -31 -10 -37 1 -3 5 5 8 18 7 13 0
22 -4 19 -8z m-15 -32 c-7 -8 -17 -12 -22 -9 -4 3 -2 9 5 14 22 13 31 11 17
-5z m362 -28 c-1 -8 -6 -6 -15 6 -20 26 -19 42 0 22 8 -8 15 -21 15 -28z m-20
-268 c0 -5 -5 -10 -11 -10 -5 0 -7 5 -4 10 3 6 8 10 11 10 2 0 4 -4 4 -10z
m-344 -125 c0 -19 -2 -36 -5 -36 -4 -1 -18 -2 -33 -3 -23 -2 -25 0 -16 17 8
16 12 17 19 6 6 -10 10 -8 17 11 5 14 8 28 5 33 -2 4 0 7 4 7 5 0 9 -16 9 -35z
m354 25 c0 -5 -4 -10 -10 -10 -5 0 -10 5 -10 10 0 6 5 10 10 10 6 0 10 -4 10
-10z m-23 -152 c-3 -8 -6 -5 -6 6 -1 11 2 17 5 13 3 -3 4 -12 1 -19z m-310
-13 c0 -8 -4 -12 -9 -9 -5 3 -6 10 -3 15 9 13 12 11 12 -6z m197 -96 c-8 -14
-21 -11 -21 5 0 8 6 12 14 9 7 -3 10 -9 7 -14z m-24 -29 c0 -5 -5 -10 -11 -10
-5 0 -7 5 -4 10 3 6 8 10 11 10 2 0 4 -4 4 -10z"/>
<path d="M99 2573 c-13 -16 -12 -17 3 -5 11 9 18 10 23 2 7 -11 25 -4 25 11 0
16 -37 10 -51 -8z"/>
<path d="M1781 2568 c-12 -20 -12 -21 0 -11 11 9 19 8 33 -3 11 -8 14 -14 8
-14 -7 0 -12 -5 -12 -12 0 -21 24 9 25 32 1 14 -2 17 -8 11 -7 -7 -14 -5 -21
5 -9 12 -13 11 -25 -8z"/>
<path d="M1897 2571 c-5 -22 7 -29 18 -11 10 16 28 12 21 -5 -3 -8 -1 -15 4
-15 6 0 10 5 10 11 0 5 4 8 9 4 5 -3 13 -1 16 5 5 8 12 7 23 -2 15 -12 16 -11
3 5 -8 9 -16 15 -19 12 -3 -3 -11 0 -19 6 -8 7 -13 8 -13 1 0 -12 -32 -11 -41
1 -3 5 -9 -1 -12 -12z"/>
<path d="M2360 2581 c0 -6 4 -12 8 -15 5 -3 9 1 9 9 0 8 -4 15 -9 15 -4 0 -8
-4 -8 -9z"/>
<path d="M2106 2570 c-27 -9 -7 -18 24 -10 18 4 21 8 10 12 -8 3 -24 2 -34 -2z"/>
<path d="M2460 2570 c-9 -6 -10 -10 -3 -10 6 0 15 5 18 10 8 12 4 12 -15 0z"/>
<path d="M2496 2567 c3 -10 9 -15 12 -12 3 3 0 11 -7 18 -10 9 -11 8 -5 -6z"/>
<path d="M690 2555 c-7 -9 -8 -15 -2 -15 5 0 12 7 16 15 3 8 4 15 2 15 -2 0
-9 -7 -16 -15z"/>
<path d="M934 2563 c3 -6 -2 -16 -11 -22 -10 -5 -15 -12 -12 -15 3 -3 14 1 25
8 16 13 17 17 5 28 -8 8 -11 8 -7 1z"/>
<path d="M2253 2552 c-1 -10 5 -19 12 -19 10 0 11 5 4 19 -5 10 -11 18 -12 18
-2 0 -3 -8 -4 -18z"/>
<path d="M2020 2551 c0 -5 5 -13 10 -16 6 -3 10 -2 10 4 0 5 -4 13 -10 16 -5
3 -10 2 -10 -4z"/>
<path d="M100 2541 c0 -6 5 -13 12 -17 6 -4 8 -3 4 4 -3 5 0 13 6 15 8 3 6 6
-4 6 -10 1 -18 -3 -18 -8z"/>
<path d="M2530 2509 c0 -5 5 -7 10 -4 6 3 10 8 10 11 0 2 -4 4 -10 4 -5 0 -10
-5 -10 -11z"/>
<path d="M92 2491 c-12 -10 -22 -25 -22 -32 1 -11 3 -11 13 1 7 8 21 17 32 18
27 5 28 7 12 21 -11 8 -19 7 -35 -8z"/>
<path d="M2525 2479 c-4 -6 -5 -12 -2 -15 2 -3 7 2 10 11 7 17 1 20 -8 4z"/>
<path d="M1413 2458 c-1 -10 2 -18 8 -18 5 0 9 7 9 16 0 8 4 13 9 9 5 -3 12
-1 16 5 3 6 -4 9 -17 8 -15 -1 -25 -9 -25 -20z"/>
<path d="M1137 2429 c4 -13 8 -18 11 -10 2 7 -1 18 -6 23 -8 8 -9 4 -5 -13z"/>
<path d="M2495 2440 c-3 -5 1 -10 9 -10 8 0 16 -8 18 -17 3 -15 6 -14 17 6 7
13 8 21 3 17 -6 -3 -13 -2 -17 4 -8 13 -22 13 -30 0z"/>
<path d="M1170 2384 c0 -8 5 -12 10 -9 6 3 10 10 10 16 0 5 -4 9 -10 9 -5 0
-10 -7 -10 -16z"/>
<path d="M1430 2391 c0 -6 4 -12 8 -15 5 -3 9 1 9 9 0 8 -4 15 -9 15 -4 0 -8
-4 -8 -9z"/>
<path d="M1195 2370 c-3 -5 -1 -10 4 -10 6 0 11 5 11 10 0 6 -2 10 -4 10 -3 0
-8 -4 -11 -10z"/>
<path d="M1210 2329 c0 -5 5 -7 10 -4 6 3 10 8 10 11 0 2 -4 4 -10 4 -5 0 -10
-5 -10 -11z"/>
<path d="M68 2303 c7 -3 16 -2 19 1 4 3 -2 6 -13 5 -11 0 -14 -3 -6 -6z"/>
<path d="M1230 2280 c0 -6 -4 -9 -8 -6 -5 3 -9 -1 -9 -9 0 -11 4 -12 14 -4 7
6 20 9 28 5 22 -8 18 1 -5 14 -14 8 -20 8 -20 0z"/>
<path d="M1232 2230 c-10 -17 -10 -20 3 -20 8 0 15 9 15 20 0 11 -1 20 -3 20
-1 0 -8 -9 -15 -20z"/>
<path d="M69 2211 c8 -5 12 -18 9 -29 -5 -19 13 -38 25 -26 8 8 -24 64 -36 64
-8 0 -7 -4 2 -9z"/>
<path d="M2182 2210 c-15 -11 -12 -48 4 -54 20 -8 29 -2 19 13 -3 6 -12 8 -18
5 -7 -4 -8 -3 -4 2 9 9 12 10 50 14 12 1 16 4 9 7 -6 2 -10 8 -8 11 5 8 -43
10 -52 2z"/>
<path d="M2493 2203 c4 -3 1 -13 -6 -22 -10 -14 -10 -14 4 -4 9 7 20 9 25 5 4
-4 2 1 -5 11 -7 9 -16 17 -19 17 -3 0 -2 -3 1 -7z"/>
<path d="M1898 2192 c-22 -4 -23 -16 -3 -32 11 -10 17 -9 29 3 18 18 2 36 -26
29z m12 -22 c0 -5 -2 -10 -4 -10 -3 0 -8 5 -11 10 -3 6 -1 10 4 10 6 0 11 -4
11 -10z"/>
<path d="M2400 2191 c0 -6 4 -12 8 -15 5 -3 9 1 9 9 0 8 -4 15 -9 15 -4 0 -8
-4 -8 -9z"/>
<path d="M1260 2171 c0 -5 7 -12 16 -15 24 -9 27 -7 10 9 -17 17 -26 19 -26 6z"/>
<path d="M2440 2161 c0 -7 -5 -9 -12 -5 -7 5 -8 3 -3 -5 5 -9 10 -10 18 -2 6
6 8 14 4 18 -4 3 -7 1 -7 -6z"/>
<path d="M1415 2140 c3 -5 8 -10 11 -10 2 0 4 5 4 10 0 6 -5 10 -11 10 -5 0
-7 -4 -4 -10z"/>
<path d="M1295 2130 c3 -5 8 -10 11 -10 2 0 4 5 4 10 0 6 -5 10 -11 10 -5 0
-7 -4 -4 -10z"/>
<path d="M1431 2074 c0 -11 3 -14 6 -6 3 7 2 16 -1 19 -3 4 -6 -2 -5 -13z"/>
<path d="M70 2045 c-9 -10 -9 -15 -1 -15 6 0 11 5 11 11 0 5 5 7 10 4 6 -3 10
-1 10 4 0 16 -16 13 -30 -4z"/>
<path d="M1427 2043 c-4 -3 -7 -11 -7 -17 0 -6 5 -5 12 2 6 6 9 14 7 17 -3 3
-9 2 -12 -2z"/>
<path d="M1280 1989 c0 -5 5 -7 10 -4 6 3 10 8 10 11 0 2 -4 4 -10 4 -5 0 -10
-5 -10 -11z"/>
<path d="M1435 1990 c3 -5 14 -10 23 -10 15 0 15 2 2 10 -20 13 -33 13 -25 0z"/>
<path d="M1277 1963 c-12 -12 -7 -22 8 -17 8 4 15 10 15 15 0 11 -14 12 -23 2z"/>
<path d="M1298 1933 c7 -3 16 -2 19 1 4 3 -2 6 -13 5 -11 0 -14 -3 -6 -6z"/>
<path d="M1291 1898 c-13 -22 -13 -23 6 -5 11 9 23 14 28 10 4 -5 5 -2 1 5
-10 18 -19 15 -35 -10z"/>
<path d="M1880 1881 c0 -6 4 -13 10 -16 6 -3 7 1 4 9 -7 18 -14 21 -14 7z"/>
<path d="M86 1843 c-6 -14 -5 -15 5 -6 7 7 10 15 7 18 -3 3 -9 -2 -12 -12z"/>
<path d="M1313 1823 c4 -3 1 -13 -6 -22 -11 -14 -10 -14 5 -2 16 12 16 31 1
31 -4 0 -3 -3 0 -7z"/>
<path d="M81 1808 c-1 -12 7 -18 22 -18 21 -1 21 -2 -8 -26 -16 -14 -23 -24
-15 -22 25 5 50 41 38 55 -6 7 -14 11 -18 8 -5 -3 -11 1 -13 7 -3 8 -6 6 -6
-4z"/>
<path d="M1888 1705 c-3 -13 -2 -22 2 -20 11 7 20 45 10 45 -4 0 -10 -11 -12
-25z"/>
<path d="M1440 1519 c0 -5 5 -7 10 -4 6 3 10 8 10 11 0 2 -4 4 -10 4 -5 0 -10
-5 -10 -11z"/>
<path d="M2121 1476 c-1 -16 -4 -17 -13 -8 -7 7 -16 12 -22 12 -5 0 -6 -3 -3
-7 4 -3 3 -11 -3 -17 -6 -8 -3 -12 10 -13 22 -2 44 21 37 39 -3 8 -6 5 -6 -6z"/>
<path d="M2290 1465 c-5 -6 2 -10 21 -11 16 -1 29 4 29 10 0 15 -38 15 -50 1z"/>
<path d="M1304 1458 c3 -10 1 -20 -4 -23 -6 -4 -10 -1 -10 4 0 6 -5 11 -11 11
-8 0 -8 -4 0 -14 9 -11 9 -15 -1 -19 -7 -3 -3 -4 9 -4 12 1 20 3 18 6 -3 2 -1
9 5 15 5 7 5 17 -2 26 -8 12 -9 12 -4 -2z"/>
<path d="M2355 1410 c-3 -5 -1 -10 4 -10 6 0 11 5 11 10 0 6 -2 10 -4 10 -3 0
-8 -4 -11 -10z"/>
<path d="M2373 1394 c-6 -13 -7 -22 -2 -18 5 3 9 -1 9 -8 0 -9 3 -9 10 2 8 12
10 12 10 1 0 -8 2 -12 5 -9 3 3 -1 16 -8 30 l-13 25 -11 -23z"/>
<path d="M1416 1402 c-3 -5 1 -9 9 -9 8 0 12 4 9 9 -3 4 -7 8 -9 8 -2 0 -6 -4
-9 -8z"/>
<path d="M85 1350 c-3 -6 1 -7 9 -4 18 7 21 14 7 14 -6 0 -13 -4 -16 -10z"/>
<path d="M2330 1182 c0 -14 23 -32 40 -31 9 0 6 4 -8 10 -13 5 -20 13 -17 19
3 5 1 10 -4 10 -6 0 -11 -4 -11 -8z"/>
<path d="M63 1147 c0 -7 9 -14 19 -14 10 -1 18 3 18 9 0 6 -3 8 -7 5 -3 -4
-11 -2 -18 3 -8 7 -12 6 -12 -3z"/>
<path d="M1106 1133 c-6 -14 -5 -15 5 -6 7 7 10 15 7 18 -3 3 -9 -2 -12 -12z"/>
<path d="M1142 1136 c7 -8 15 -12 17 -11 5 6 -10 25 -20 25 -5 0 -4 -6 3 -14z"/>
<path d="M97 1116 c-16 -12 -15 -13 10 -13 16 0 22 2 15 4 -6 3 -10 9 -6 14 7
12 2 11 -19 -5z"/>
<path d="M1073 1063 c-3 -10 -9 -22 -11 -28 -3 -5 2 -4 11 4 9 7 15 17 12 21
-3 5 1 11 7 13 10 4 10 6 0 6 -7 1 -15 -7 -19 -16z"/>
<path d="M1450 1060 c0 -5 5 -10 11 -10 5 0 7 5 4 10 -3 6 -8 10 -11 10 -2 0
-4 -4 -4 -10z"/>
<path d="M2226 1054 c18 -15 18 -15 -5 -10 -17 3 -21 2 -13 -6 6 -6 18 -8 27
-4 14 5 15 9 5 21 -7 8 -17 15 -23 15 -6 0 -2 -7 9 -16z"/>
<path d="M1419 1043 c-13 -16 -12 -17 4 -4 16 13 21 21 13 21 -2 0 -10 -8 -17
-17z"/>
<path d="M77 996 c-18 -14 -18 -14 0 -19 10 -2 31 -5 47 -6 l30 -1 -22 20
c-25 23 -31 24 -55 6z m28 -6 c3 -5 -1 -10 -10 -10 -9 0 -13 5 -10 10 3 6 8
10 10 10 2 0 7 -4 10 -10z"/>
<path d="M950 999 c0 -5 5 -7 10 -4 6 3 10 8 10 11 0 2 -4 4 -10 4 -5 0 -10
-5 -10 -11z"/>
<path d="M765 970 c3 -5 8 -10 11 -10 2 0 4 5 4 10 0 6 -5 10 -11 10 -5 0 -7
-4 -4 -10z"/>
<path d="M1883 935 c0 -8 4 -12 9 -9 5 3 6 10 3 15 -9 13 -12 11 -12 -6z"/>
<path d="M1420 881 c0 -10 19 -25 25 -20 1 2 -3 10 -11 17 -8 7 -14 8 -14 3z"/>
<path d="M1846 871 c-4 -5 -2 -12 3 -15 5 -4 12 -2 15 3 4 5 2 12 -3 15 -5 4
-12 2 -15 -3z"/>
<path d="M1443 833 c19 -5 17 -30 -2 -25 -6 1 -11 -6 -11 -15 0 -13 7 -10 30
12 17 16 30 29 30 29 0 1 -15 2 -33 2 -17 1 -24 -1 -14 -3z"/>
<path d="M1887 795 c-4 -8 -3 -16 1 -19 4 -3 9 4 9 15 2 23 -3 25 -10 4z"/>
<path d="M67 761 c-4 -17 -3 -21 5 -13 5 5 8 16 6 23 -3 8 -7 3 -11 -10z"/>
<path d="M1410 771 c0 -5 5 -13 10 -16 6 -3 10 -2 10 4 0 5 -4 13 -10 16 -5 3
-10 2 -10 -4z"/>
<path d="M551 704 c0 -11 3 -14 6 -6 3 7 2 16 -1 19 -3 4 -6 -2 -5 -13z"/>
<path d="M65 690 c-3 -6 0 -13 8 -16 19 -7 17 -34 -2 -35 -10 0 -11 -3 -4 -5
7 -3 9 -13 6 -22 -4 -12 0 -10 10 4 9 12 14 31 12 43 -2 11 1 21 6 21 6 0 7 5
4 10 -8 13 -32 13 -40 0z"/>
<path d="M1875 590 c4 -6 11 -8 16 -5 14 9 11 15 -7 15 -8 0 -12 -5 -9 -10z"/>
<path d="M1413 565 c0 -7 8 -10 19 -7 10 2 18 6 18 7 0 1 -8 5 -18 7 -11 3
-19 0 -19 -7z"/>
<path d="M515 529 c-4 -5 -11 -6 -17 -3 -7 4 -8 2 -4 -5 4 -7 13 -10 19 -8 7
2 17 -3 24 -12 10 -14 12 -13 10 6 -1 24 -22 38 -32 22z"/>
<path d="M1430 429 c0 -5 5 -7 10 -4 6 3 10 8 10 11 0 2 -4 4 -10 4 -5 0 -10
-5 -10 -11z"/>
<path d="M1876 419 c-14 -13 -15 -19 -6 -19 10 0 8 -4 -4 -13 -16 -12 -16 -14
2 -31 14 -12 22 -14 27 -6 4 6 4 14 1 17 -3 4 -6 1 -6 -6 0 -7 -5 -9 -10 -6
-7 4 -7 13 0 26 6 10 7 19 3 19 -4 0 -2 4 6 9 7 5 12 13 10 18 -2 6 -13 2 -23
-8z"/>
<path d="M530 286 c0 -8 7 -17 16 -20 13 -5 14 -4 6 7 -7 8 -9 17 -5 20 3 4 1
7 -5 7 -7 0 -12 -6 -12 -14z"/>
<path d="M507 254 c3 -8 8 -12 11 -10 3 3 11 -2 19 -12 13 -15 13 -15 4 4 -12
25 -43 41 -34 18z"/>
<path d="M1846 245 c4 -8 11 -15 16 -15 6 0 5 6 -2 15 -7 8 -14 15 -16 15 -2
0 -1 -7 2 -15z"/>
<path d="M545 200 c-3 -5 -1 -10 4 -10 6 0 11 5 11 10 0 6 -2 10 -4 10 -3 0
-8 -4 -11 -10z"/>
<path d="M1410 181 c0 -6 4 -13 10 -16 6 -3 7 1 4 9 -7 18 -14 21 -14 7z"/>
<path d="M75 130 c3 -5 8 -10 11 -10 2 0 4 5 4 10 0 6 -5 10 -11 10 -5 0 -7
-4 -4 -10z"/>
<path d="M1413 105 c0 -8 4 -15 9 -15 4 0 8 4 8 9 0 6 -4 12 -8 15 -5 3 -9 -1
-9 -9z"/>
<path d="M72 90 c9 -14 14 -16 20 -7 4 7 8 17 8 22 0 6 -5 3 -10 -5 -6 -10
-10 -11 -10 -2 0 6 -5 12 -10 12 -6 0 -5 -8 2 -20z"/>
<path d="M1445 80 c3 -5 1 -19 -5 -30 -6 -11 -8 -20 -6 -20 3 0 12 14 21 30
14 27 14 30 0 30 -9 0 -13 -4 -10 -10z"/>
<path d="M1845 70 c-3 -5 -1 -10 4 -10 6 0 11 5 11 10 0 6 -2 10 -4 10 -3 0
-8 -4 -11 -10z"/>
<path d="M1735 59 c7 -11 35 -12 35 -1 0 4 -9 8 -20 9 -11 1 -18 -2 -15 -8z"/>
<path d="M505 50 c-3 -5 1 -10 9 -10 9 0 16 -5 16 -12 0 -6 2 -9 5 -6 7 7 -5
38 -15 38 -5 0 -12 -4 -15 -10z"/>
<path d="M1470 50 c-12 -7 -10 -9 7 -7 12 0 19 5 17 9 -6 10 -6 10 -24 -2z"/>
<path d="M1723 32 c10 -10 14 -22 10 -27 -5 -4 -2 -5 5 -1 11 6 10 12 -4 27
-9 10 -19 19 -22 19 -3 0 2 -8 11 -18z"/>
<path d="M145 30 c3 -5 8 -10 11 -10 2 0 4 5 4 10 0 6 -5 10 -11 10 -5 0 -7
-4 -4 -10z"/>
<path d="M270 30 c0 -5 5 -10 11 -10 5 0 7 5 4 10 -3 6 -8 10 -11 10 -2 0 -4
-4 -4 -10z"/>
<path d="M320 24 c0 -8 5 -12 10 -9 6 4 8 11 5 16 -9 14 -15 11 -15 -7z"/>
<path d="M1608 22 c9 -11 20 -17 25 -15 9 5 -18 33 -32 33 -6 0 -3 -8 7 -18z"/>
<path d="M1471 14 c0 -11 3 -14 6 -6 3 7 2 16 -1 19 -3 4 -6 -2 -5 -13z"/>
<path d="M410 9 c0 -5 5 -7 10 -4 6 3 10 8 10 11 0 2 -4 4 -10 4 -5 0 -10 -5
-10 -11z"/>
</g>
</svg>
